<?xml version="1.0" encoding="utf-8"?>
<!-- Generator: Adobe Illustrator 27.0.1, SVG Export Plug-In . SVG Version: 6.00 Build 0)  -->
<svg version="1.1" id="_x31_" xmlns="http://www.w3.org/2000/svg" xmlns:xlink="http://www.w3.org/1999/xlink" x="0px" y="0px"
	 width="640px" height="100px" viewBox="0 0 640 100" style="enable-background:new 0 0 640 100;" xml:space="preserve">
<style type="text/css">
	.st0{fill:#8CBEFF;}
	.st1{fill:#F8F8FF;stroke:#888888;stroke-width:2;stroke-miterlimit:10;}
	.st2{fill:#444444;}
	.st3{fill:#FFDC96;}
	.st4{fill:#F8F8FF;}
	.st5{fill:#EEEEFF;}
	.st6{fill:#2A2A2A;}
</style>
<g id="Logo">
	<ellipse class="st0" cx="54" cy="88.3" rx="21.7" ry="6.7"/>
	<path class="st1" d="M45.8,87.3c-0.3,0-1.9-0.1-4.1-0.8c-1.1-0.2-4.1-1.2-6.6-3.2c-2-1.6-3.2-3.7-4.8-7.5
		c-1.6-4.1-3.4-8.5-4.3-15.4c-1.6-14,2.1-26.2,4.5-30.1c0.6-1.1,1.8-2.6,2.7-5.4c0.9-2.8,0.6-4.1,1.5-4.5c1.5-0.8,3.2,2.7,7.4,3.3
		c3.7,0.6,5.4-1.5,7.1-0.2c1.6,1.2,1.4,4.2,1.1,6.9c-0.3,3.7-1.4,5.3-3,10.5c-1.3,4.1-1.8,6.1-2,7.7c-0.6,4.3,0,8.5,1.5,12.7
		c0.3,1,0.5,1.9,0.9,2.8c0.3,1,1.1,3,1.7,4.6c1.2,2.5,4,6.4,5.5,5.9c0.9-0.2,1.2-2.4,1.9-6.8c0.2-1.9,0.3-2.9,1-4.7
		c0.2-0.9,0.3-1.1,1.2-3.4c1.5-4.5,1.9-5.6,1.9-5.6c0.2,0-0.1,2.4-0.6,4.5C60,59.2,59.9,60,59.6,61c-0.2,1-0.3,1.4-0.3,1.9
		c-0.1,1.5,0.2,2.5,0.3,3c1,3.2,3.4,3.8,4.5,7c0.4,1.3,0.2,2.5,0.2,5.1c0,0.8-0.1,2.1-0.5,3.9c-0.5,2.4-0.8,3.5-1.7,4.5
		c-0.3,0.3-1.4,1.2-2.8,1.4c-1.1,0.1-1.4-0.2-4.6-1.1c0,0-1.3-0.2-2.3-0.2c-0.2,0-0.3,0.1-1.1,0.2c0,0-0.8,0.1-1.5,0.2
		C47.6,87.4,45.8,87.3,45.8,87.3z"/>
	<path class="st2" d="M35.2,83.3c-1.5-2.9-10.3-20.5-8.2-35.4c0.4-2.9,2.5-14.5,5.3-19.1c0.2-0.3,1.4-2.3,1.9-4.9
		c0.3-1.5,0.4-3,0.4-4.6c-0.1-2.1-0.8-4.1-2.5-5.6c-1.5-1.4-3.1-2.8-5.1-3.5c0.1-0.1,0.2-0.2,0.3-0.5c0.2-0.3,0.9-1,3.2-1.5
		c0.4-0.1,0.9-0.2,1.5-0.3c1.2-0.2,2.1-0.2,2.8-0.2c2.1-0.2,4.2-0.6,6.2-1.5c2.6-1,5.3-1.4,8-0.5c3.7,1.1,5.8,3.8,7.3,7.2
		c1.3,3,1.7,6.2,2.8,9.2c1.3,4.1,3.2,7.8,4.5,11.8c2.7,8,4.6,16.1,5.2,24.4c0.3,4.9,0.6,10,0.9,15c0.1,5.4,2.5,9.6,6.4,13.1
		c0.6,0.6,1,1.4,0.3,2.1c-0.8,0-1.9-0.1-3.3-0.2c-2.8-0.3-9.5-1.3-10.1-4.1c-0.1-0.5,0.1-0.5,0.1-2c0-1.4-0.2-2.4-0.5-3.5
		c-0.2-1.1-0.5-2.3-0.6-2.1c-0.3,0,1.6,8-1.7,10.6c-0.8,0.6-1.6,0.9-2.4,1c-6.9-0.2-11.8-0.4-13.1-0.6c-0.8-0.1-1.5-0.2-1.5-0.2
		s-0.9-0.2-1.8-0.4c-1.1-0.2-3.1-1-5.4-2C35.8,84.1,35.5,83.7,35.2,83.3z"/>
	<path class="st3" d="M60.5,89.1c0,0.2,0.1,1.3-0.5,1.8c-0.5,0.4-1.1,0.2-1.8,0.2c-2.4-0.1-4.6,0.6-7,1.1c-0.8,0.2-1.5,0.4-1.7-0.6
		c-0.1-0.6-0.6-0.4-1.1-0.3c-1,0.1-1.9,0.2-2.8,0.2c-1.1,0.1-1.3-0.4-1-1.4c0.3-1.2,1.4-1.6,2.1-2.4c1.5-1,3.1-1,4.7-1.1
		c1.1-0.1,2.3,0,3.3-0.2c0.6-0.1,1.2,0,1.5,0c1.2,0.1,1.8,0.1,2.3,0.2C59.6,87.2,60.4,88,60.5,89.1z"/>
	<path class="st3" d="M43.8,87.3c-0.2,0.2-0.5,0.3-0.8,0.3c-2.8,0.4-5.6,1-8.4,1.4c-0.8,0.1-1.6,0-2.5,0c-0.6-0.5-1.5-0.1-2,0.2
		c-0.3,0.1-0.6,0.5-1.1,0.1c-0.2-0.3-0.2-0.8-0.1-1.1c0.2-0.9,0.6-1.5,1.4-2.1c1.5-1.3,3.1-2,4.8-2.8c2.3,1.5,4.7,2.4,7.4,3
		C43.1,86.3,43.6,86.5,43.8,87.3z"/>
	<path class="st3" d="M42.2,13c0.1-1.2,1-2.4,1.6-2.4c0.9,0,1.7,1.4,1.6,2.5s-1,1.7-1.9,1.7C42.7,14.7,42.1,14.1,42.2,13z"/>
	<path class="st3" d="M33.8,9.1c0.9,0.4,1.6,0.8,2.5,1.3c0.8,0.4,1.1,1.2,0.9,2.3c-0.2,1.2-1.1,0.8-1.5,0.6
		c-2.6-0.6-5.1-1.5-7.6-2.3c-1-0.2-1.9-0.6-3.1-0.5c-0.1-0.1-0.2-0.1-0.3-0.2c-0.4-0.3-1.3,0-1.4-0.9c0-0.9,0.8-1.2,1.4-1.5
		c2.4-0.9,4.6-0.3,6.9,0.2C32.3,8.4,33,8.6,33.8,9.1z"/>
	<path class="st4" d="M45.8,87.3c-0.3,0-1.9-0.1-4.1-0.8c-1.1-0.2-4.1-1.2-6.6-3.2c-2-1.6-3.2-3.7-4.8-7.5
		c-1.6-4.1-3.4-8.5-4.3-15.4c-1.6-14,2.1-26.2,4.5-30.1c0.6-1.1,1.8-2.6,2.7-5.4c0.9-2.8,0.6-4.1,1.5-4.5c1.5-0.8,3.2,2.7,7.4,3.3
		c3.7,0.6,5.4-1.5,7.1-0.2c1.6,1.2,1.4,4.2,1.1,6.9c-0.3,3.7-1.4,5.3-3,10.5c-1.3,4.1-1.8,6.1-2,7.7c-0.6,4.3,0,8.5,1.5,12.7
		c0.3,1,0.5,1.9,0.9,2.8c0.3,1,1.1,3,1.7,4.6c1.2,2.5,4,6.4,5.5,5.9c0.9-0.2,1.2-2.4,1.9-6.8c0.2-1.9,0.3-2.9,1-4.7
		c0.2-0.9,0.3-1.1,1.2-3.4c1.5-4.5,1.9-5.6,1.9-5.6c0.2,0-0.1,2.4-0.6,4.5C60,59.2,59.9,60,59.6,61c-0.2,1-0.3,1.4-0.3,1.9
		c-0.1,1.5,0.2,2.5,0.3,3c1,3.2,3.4,3.8,4.5,7c0.4,1.3,0.2,2.5,0.2,5.1c0,0.8-0.1,2.1-0.5,3.9c-0.5,2.4-0.8,3.5-1.7,4.5
		c-0.3,0.3-1.4,1.2-2.8,1.4c-1.1,0.1-1.4-0.2-4.6-1.1c0,0-1.3-0.2-2.3-0.2c-0.2,0-0.3,0.1-1.1,0.2c0,0-0.8,0.1-1.5,0.2
		C47.6,87.4,45.8,87.3,45.8,87.3z"/>
	<path class="st5" d="M54.8,75.5c0,0,0.6-1.6,1.1-3.5c0.2-0.8,0.2-1.3,0.2-1.9c0.1-1.1,0.6-4.1,0.9-5.4c0.9-4.1,1.9-5.9,3.1-10.6
		c1.1-4.9,1.2-8.8,1.6-8.8c0.2,0,0.5,1.6,0.5,1.7c0.1,1.1,0,1.9-0.2,3c-0.3,2-0.3,2.4-0.4,2.8c0,0-0.1,0.4-0.2,0.9
		c-0.2,1.1-3.1,10.5-3.4,12.5c0,0.3-0.1,0.6-0.1,0.6c-0.2,0.8-0.2,1.2-0.2,1.5c0,0.6,0.1,1.3,0.1,1.5c0.1,0.4,0.2,0.8,0.3,1.2
		c0.2,0.4,0.4,0.6,0.3,0.8c-0.1,0.1-0.6,0-1,0C56,71.8,54.9,75.5,54.8,75.5z"/>
</g>
<g>
	<path class="st6" d="M156.7,75.2v-52h14.2c4.1,0,7.2,0.3,9.4,1s4,1.8,5.4,3.5c1.9,2.2,2.8,5.3,2.8,9.1c0,5.5-1.9,9.9-5.6,13
		c-3.8,3.1-9,4.7-15.6,4.7H164v20.7H156.7z M164,48.9h3c4.4,0,7.8-1,10.2-3c2.4-2,3.6-4.9,3.6-8.6c0-3.1-0.9-5.3-2.8-6.6
		c-1.9-1.3-5-2-9.4-2H164V48.9z"/>
	<path class="st6" d="M211.9,76.1c-5.6,0-10-1.8-13.3-5.4s-4.9-8.4-4.9-14.6c0-6.1,1.6-11,4.9-14.6c3.3-3.6,7.7-5.4,13.3-5.4
		c5.6,0,10,1.8,13.3,5.4c3.3,3.6,4.9,8.4,4.9,14.6c0,6.1-1.6,11-4.9,14.6S217.5,76.1,211.9,76.1z M211.9,70.9c3.4,0,6.1-1.3,8-3.9
		c1.9-2.6,2.8-6.2,2.8-10.9c0-4.7-0.9-8.3-2.8-10.9s-4.6-3.8-8-3.8s-6.1,1.3-8,3.8s-2.8,6.2-2.8,10.9c0,4.7,0.9,8.3,2.8,10.9
		C205.8,69.6,208.5,70.9,211.9,70.9z"/>
	<path class="st6" d="M240.9,75.2V37h6.9v7.2c2.7-5.3,6.7-8,12-8c0.7,0,1.4,0.1,2.2,0.2v6.5c-1.2-0.4-2.2-0.6-3.2-0.6
		c-4.4,0-8.1,2.6-11,7.8v25.1H240.9z"/>
	<path class="st6" d="M287.4,75.2c-2.1,0.6-4,0.9-5.6,0.9c-3.5,0-6.3-1-8.2-3c-2-2-3-4.8-3-8.4V42.2h-4.8V37h4.8v-6.9l6.9-0.7V37h10
		v5.2h-10v21.2c0,5,2.2,7.5,6.5,7.5c0.9,0,2-0.2,3.3-0.5V75.2z"/>
	<path class="st6" d="M298.6,75.2v-33h-5.4V37h5.4v-4.6c0-9.1,4.1-13.6,12.4-13.6c2.3,0,5,0.4,7.9,1.2v5.5c-3.1-1-5.6-1.5-7.5-1.5
		c-2.3,0-3.8,0.5-4.7,1.6s-1.3,3.1-1.3,6.1V37h9.6v5.2h-9.6v33H298.6z"/>
	<path class="st6" d="M339,76.1c-5.6,0-10-1.8-13.3-5.4s-4.9-8.4-4.9-14.6c0-6.1,1.6-11,4.9-14.6c3.3-3.6,7.7-5.4,13.3-5.4
		s10,1.8,13.3,5.4c3.3,3.6,4.9,8.4,4.9,14.6c0,6.1-1.6,11-4.9,14.6S344.6,76.1,339,76.1z M339,70.9c3.4,0,6.1-1.3,8-3.9
		c1.9-2.6,2.8-6.2,2.8-10.9c0-4.7-0.9-8.3-2.8-10.9c-1.9-2.6-4.6-3.8-8-3.8s-6.1,1.3-8,3.8c-1.9,2.6-2.8,6.2-2.8,10.9
		c0,4.7,0.9,8.3,2.8,10.9C332.9,69.6,335.5,70.9,339,70.9z"/>
	<path class="st6" d="M368,75.2V19.7h6.9v55.5H368z"/>
	<path class="st6" d="M388.9,30.1v-6.9h6.9v6.9H388.9z M388.9,75.2V37h6.9v38.2H388.9z"/>
	<path class="st6" d="M424.9,76.1c-5.6,0-10-1.8-13.3-5.4s-4.9-8.4-4.9-14.6c0-6.1,1.6-11,4.9-14.6c3.3-3.6,7.7-5.4,13.3-5.4
		s10,1.8,13.3,5.4c3.3,3.6,4.9,8.4,4.9,14.6c0,6.1-1.6,11-4.9,14.6S430.5,76.1,424.9,76.1z M424.8,70.9c3.4,0,6.1-1.3,8-3.9
		c1.9-2.6,2.8-6.2,2.8-10.9c0-4.7-0.9-8.3-2.8-10.9c-1.9-2.6-4.6-3.8-8-3.8s-6.1,1.3-8,3.8c-1.9,2.6-2.8,6.2-2.8,10.9
		c0,4.7,0.9,8.3,2.8,10.9C418.7,69.6,421.4,70.9,424.8,70.9z"/>
</g>
</svg>
