<?xml version="1.0" encoding="utf-8"?>
<!-- Generator: Adobe Illustrator 27.0.1, SVG Export Plug-In . SVG Version: 6.00 Build 0)  -->
<svg version="1.1" id="レイヤー_1" xmlns="http://www.w3.org/2000/svg" xmlns:xlink="http://www.w3.org/1999/xlink" x="0px"
	 y="0px" width="640px" height="128px" viewBox="0 0 640 128" style="enable-background:new 0 0 640 128;" xml:space="preserve">
<style type="text/css">
	.st0{fill:#AADCFF;}
	.st1{enable-background:new    ;}
	.st2{fill:#8CBEFF;}
	.st3{fill:#444444;}
	.st4{fill:#FFDC96;}
	.st5{fill:#F8F8FF;}
	.st6{fill:#EEEEFF;}
</style>
<g id="レイヤー_1_00000029728090393131403270000012216977048501914251_">
	<rect y="-16" class="st0" width="640" height="160"/>
	<g class="st1">
		<path d="M227.4,66.9v12.7c0,0.7-0.2,1.3-0.7,1.8c-0.6,0.7-1.5,1-2.5,1c-1.3,0-2.3-0.5-2.9-1.4c-0.2-0.4-0.3-0.8-0.3-1.3v-35
			c0-3.3,1.9-5,5.6-5h4.5c3.4,0,6.2,1.1,8.6,3.3c2.8,2.5,4.2,5.8,4.2,10c0,4.9-1.4,8.5-4.2,11.1c-2.2,1.9-5,2.9-8.5,2.9H227.4z
			 M227.4,60.7h3.3c4.3,0,6.4-2.5,6.4-7.5c0-2.4-0.7-4.2-2.1-5.6c-1.1-1.1-2.5-1.7-4-1.7h-2.5c-0.8,0-1.2,0.4-1.2,1.2V60.7z"/>
		<path d="M262.2,50.9c3.7,0,6.6,1.5,8.7,4.5c2,2.8,3,6.6,3,11.3c0,3.8-0.6,7-1.8,9.6c-2,4.3-5.3,6.4-9.9,6.4c-4,0-7-1.7-9.1-5
			c-1.7-2.8-2.6-6.4-2.6-10.9c0-5,1.1-9,3.3-11.8C255.9,52.2,258.7,50.9,262.2,50.9z M262.1,56.7c-1.5,0-2.7,0.8-3.7,2.4
			c-1,1.8-1.5,4.3-1.5,7.5c0,3,0.4,5.3,1.2,7.1c0.9,2,2.3,3,4.1,3c1.6,0,2.9-0.9,3.9-2.6c1-1.8,1.4-4.3,1.4-7.5
			c0-3.4-0.6-5.9-1.7-7.7C264.8,57.4,263.6,56.7,262.1,56.7z"/>
		<path d="M290.8,64.4v15c0,0.8-0.2,1.4-0.7,1.9c-0.7,0.7-1.5,1-2.6,1c-1.5,0-2.5-0.5-3-1.5c-0.2-0.4-0.3-0.8-0.3-1.4V54.1
			c0-0.8,0.3-1.5,0.8-2c0.7-0.6,1.4-0.9,2.4-0.9c1.3,0,2.2,0.5,2.8,1.6c0.2,0.4,0.3,0.8,0.3,1.3v2.5c2.1-3.8,4.7-5.7,7.8-5.7
			c1.9,0,3.3,0.5,4.4,1.6c0.8,0.8,1.2,1.7,1.2,2.7c0,0.8-0.3,1.6-0.8,2.3c-0.7,1-1.5,1.4-2.6,1.4c-0.7,0-1.3-0.2-1.8-0.6
			c-0.5-0.4-1.1-0.5-2-0.5c-1.3,0-2.6,0.7-3.7,2.1C291.9,61.1,291.2,62.6,290.8,64.4z"/>
		<path d="M319.5,52v-6.5c0-0.7,0.2-1.3,0.6-1.7c0.6-0.8,1.6-1.1,2.8-1.1c1.4,0,2.4,0.5,3,1.5c0.2,0.4,0.3,0.8,0.3,1.4V52h4.6
			c0.6,0,1.2,0.2,1.7,0.6c0.7,0.6,1,1.4,1,2.5c0,1.2-0.4,2.1-1.3,2.7c-0.4,0.2-0.8,0.4-1.3,0.4h-4.6v21.4c0,0.7-0.2,1.2-0.6,1.7
			c-0.6,0.8-1.6,1.1-2.8,1.1c-1.4,0-2.4-0.5-3-1.5c-0.2-0.4-0.3-0.8-0.3-1.3V58.1H315c-0.6,0-1.2-0.2-1.7-0.6c-0.7-0.6-1-1.4-1-2.4
			c0-1.3,0.4-2.2,1.3-2.7c0.4-0.2,0.8-0.3,1.3-0.3H319.5z"/>
		<path d="M348.3,52v-3.7c0-2.6,0.6-4.7,1.8-6.4c1.5-2.1,3.8-3.2,6.7-3.2c2.1,0,3.8,0.5,5.3,1.5c1.7,1.2,2.6,2.5,2.6,4.1
			c0,0.8-0.3,1.4-0.9,2c-0.6,0.5-1.3,0.8-2.1,0.8c-1,0-1.8-0.4-2.3-1.3c-0.5-0.8-1.1-1.2-1.9-1.2c-1.6,0-2.4,1.2-2.4,3.7V52h5.3
			c0.7,0,1.3,0.2,1.8,0.7c0.5,0.5,0.7,1.2,0.7,2c0,1.1-0.4,2-1.2,2.5c-0.4,0.2-0.8,0.3-1.3,0.3H355v22c0,0.7-0.2,1.3-0.7,1.8
			c-0.6,0.6-1.5,1-2.6,1c-1.5,0-2.5-0.5-3-1.5c-0.2-0.4-0.3-0.8-0.3-1.3v-22h-3.7c-0.6,0-1.1-0.2-1.5-0.5c-0.6-0.5-0.9-1.3-0.9-2.3
			c0-1,0.3-1.8,1-2.3c0.4-0.3,0.9-0.4,1.4-0.4H348.3z"/>
		<path d="M383.6,50.9c3.7,0,6.6,1.5,8.7,4.5c2,2.8,3,6.6,3,11.3c0,3.8-0.6,7-1.8,9.6c-2,4.3-5.3,6.4-9.9,6.4c-4,0-7-1.7-9.1-5
			c-1.7-2.8-2.6-6.4-2.6-10.9c0-5,1.1-9,3.3-11.8C377.3,52.2,380.1,50.9,383.6,50.9z M383.6,56.7c-1.5,0-2.7,0.8-3.7,2.4
			c-1,1.8-1.5,4.3-1.5,7.5c0,3,0.4,5.3,1.2,7.1c0.9,2,2.3,3,4.1,3c1.6,0,2.9-0.9,3.9-2.6c1-1.8,1.4-4.3,1.4-7.5
			c0-3.4-0.6-5.9-1.7-7.7C386.3,57.4,385,56.7,383.6,56.7z"/>
		<path d="M417.4,41.8v37.7c0,0.7-0.2,1.3-0.7,1.8c-0.7,0.7-1.6,1-2.8,1c-1.5,0-2.5-0.5-3.1-1.5c-0.2-0.4-0.3-0.8-0.3-1.3V41.8
			c0-1.1,0.5-1.8,1.4-2.3c0.6-0.3,1.3-0.5,2-0.5c1.2,0,2.1,0.3,2.8,1C417.2,40.5,417.4,41.1,417.4,41.8z"/>
		<path d="M444.3,38.7c0.7,0,1.5,0.2,2.2,0.6c1.5,0.9,2.3,2.1,2.3,3.9c0,0.7-0.2,1.4-0.5,2.1c-0.8,1.6-2.2,2.4-4,2.4
			c-0.8,0-1.5-0.2-2.1-0.6c-1.5-0.9-2.3-2.2-2.3-3.9c0-1.4,0.6-2.6,1.7-3.5C442.3,39,443.3,38.7,444.3,38.7z M447.8,54.1v25.3
			c0,0.7-0.2,1.3-0.7,1.8c-0.7,0.7-1.6,1-2.8,1c-1.5,0-2.5-0.5-3.1-1.5c-0.2-0.4-0.3-0.8-0.3-1.3V54.1c0-1,0.4-1.8,1.3-2.3
			c0.6-0.4,1.3-0.5,2.1-0.5c1.1,0,2,0.3,2.7,1C447.5,52.7,447.8,53.4,447.8,54.1z"/>
		<path d="M474.7,50.9c3.7,0,6.6,1.5,8.7,4.5c2,2.8,3,6.6,3,11.3c0,3.8-0.6,7-1.8,9.6c-2,4.3-5.3,6.4-9.9,6.4c-4,0-7-1.7-9.1-5
			c-1.7-2.8-2.6-6.4-2.6-10.9c0-5,1.1-9,3.3-11.8C468.4,52.2,471.2,50.9,474.7,50.9z M474.6,56.7c-1.5,0-2.7,0.8-3.7,2.4
			c-1,1.8-1.5,4.3-1.5,7.5c0,3,0.4,5.3,1.2,7.1c0.9,2,2.3,3,4.1,3c1.7,0,2.9-0.9,3.9-2.6c1-1.8,1.4-4.3,1.4-7.5
			c0-3.4-0.6-5.9-1.7-7.7C477.3,57.4,476.1,56.7,474.6,56.7z"/>
	</g>
</g>
<g id="レイヤー_2_00000092430034953507876990000014528118724537559688_">
	<ellipse class="st2" cx="170.9" cy="99.7" rx="20.2" ry="6.2"/>
	<path class="st3" d="M153.4,95c-1.4-2.7-9.6-19.1-7.6-32.9c0.4-2.7,2.3-13.5,4.9-17.8c0.2-0.3,1.3-2.1,1.8-4.6
		c0.3-1.4,0.4-2.8,0.4-4.3c-0.1-2-0.7-3.8-2.3-5.2c-1.4-1.3-2.9-2.6-4.7-3.3c0.1-0.1,0.2-0.2,0.3-0.5c0.2-0.3,0.8-0.9,3-1.4
		c0.4-0.1,0.8-0.2,1.4-0.3c1.1-0.2,2-0.2,2.6-0.2c2-0.2,3.9-0.6,5.8-1.4c2.4-0.9,4.9-1.3,7.4-0.5c3.4,1,5.4,3.5,6.8,6.7
		c1.2,2.8,1.6,5.8,2.6,8.6c1.2,3.8,3,7.3,4.2,11c2.5,7.4,4.3,15,4.8,22.7c0.3,4.6,0.6,9.3,0.8,14c0.1,5,2.3,8.9,6,12.2
		c0.6,0.6,0.9,1.3,0.3,2c-0.7,0-1.8-0.1-3.1-0.2c-2.6-0.3-8.8-1.2-9.4-3.8c-0.1-0.5,0.1-0.5,0.1-1.9c0-1.3-0.2-2.2-0.5-3.3
		c-0.2-1-0.5-2.1-0.6-2c-0.3,0,1.5,7.4-1.6,9.9c-0.7,0.6-1.5,0.8-2.2,0.9c-6.4-0.2-11-0.4-12.2-0.6c-0.7-0.1-1.4-0.2-1.4-0.2
		s-0.8-0.2-1.7-0.4c-1-0.2-2.9-0.9-5-1.9C154,95.8,153.7,95.4,153.4,95z"/>
	<path class="st4" d="M177,100.4c0,0.2,0.1,1.2-0.5,1.7c-0.5,0.4-1,0.2-1.7,0.2c-2.2-0.1-4.3,0.6-6.5,1c-0.7,0.2-1.4,0.4-1.6-0.6
		c-0.1-0.6-0.6-0.4-1-0.3c-0.9,0.1-1.8,0.2-2.6,0.2c-1,0.1-1.2-0.4-0.9-1.3c0.3-1.1,1.3-1.5,2-2.2c1.4-0.9,2.9-0.9,4.4-1
		c1-0.1,2.1,0,3.1-0.2c0.6-0.1,1.1,0,1.4,0c1.1,0.1,1.7,0.1,2.1,0.2C176.1,98.6,176.9,99.4,177,100.4z"/>
	<path class="st4" d="M161.4,98.7c-0.2,0.2-0.5,0.3-0.7,0.3c-2.6,0.4-5.2,0.9-7.8,1.3c-0.7,0.1-1.5,0-2.3,0
		c-0.6-0.5-1.4-0.1-1.9,0.2c-0.3,0.1-0.6,0.5-1,0.1c-0.2-0.3-0.2-0.7-0.1-1c0.2-0.8,0.6-1.4,1.3-2c1.4-1.2,2.9-1.9,4.5-2.6
		c2.1,1.4,4.4,2.2,6.9,2.8C160.8,97.8,161.3,98,161.4,98.7z"/>
	<path class="st4" d="M160,29.6c0.1-1.1,0.9-2.2,1.5-2.2c0.8,0,1.6,1.3,1.5,2.3c-0.1,1-0.9,1.6-1.8,1.6
		C160.4,31.2,159.9,30.6,160,29.6z"/>
	<path class="st4" d="M152.1,26c0.8,0.4,1.5,0.7,2.3,1.2c0.7,0.4,1,1.1,0.8,2.1c-0.2,1.1-1,0.7-1.4,0.6c-2.4-0.6-4.7-1.4-7.1-2.1
		c-0.9-0.2-1.8-0.6-2.9-0.5c-0.1-0.1-0.2-0.1-0.3-0.2c-0.4-0.3-1.2,0-1.3-0.8c0-0.8,0.7-1.1,1.3-1.4c2.2-0.8,4.3-0.3,6.4,0.2
		C150.7,25.3,151.4,25.5,152.1,26z"/>
	<path class="st5" d="M163.3,98.7c-0.3,0-1.8-0.1-3.8-0.7c-1-0.2-3.8-1.1-6.1-3c-1.9-1.5-3-3.4-4.5-7c-1.5-3.8-3.2-7.9-4-14.3
		c-1.5-13,2-24.4,4.2-28c0.6-1,1.7-2.4,2.5-5c0.8-2.6,0.6-3.8,1.4-4.2c1.4-0.7,3,2.5,6.9,3.1c3.4,0.6,5-1.4,6.6-0.2
		c1.5,1.1,1.3,3.9,1,6.4c-0.3,3.4-1.3,4.9-2.8,9.8c-1.2,3.8-1.7,5.7-1.9,7.2c-0.6,4,0,7.9,1.4,11.8c0.3,0.9,0.5,1.8,0.8,2.6
		c0.3,0.9,1,2.8,1.6,4.3c1.1,2.3,3.7,6,5.1,5.5c0.8-0.2,1.1-2.2,1.8-6.3c0.2-1.8,0.3-2.7,0.9-4.4c0.2-0.8,0.3-1,1.1-3.2
		c1.4-4.2,1.8-5.2,1.8-5.2c0.2,0-0.1,2.2-0.6,4.2c-0.2,0.5-0.3,1.2-0.6,2.2c-0.2,0.9-0.3,1.3-0.3,1.8c-0.1,1.4,0.2,2.3,0.3,2.8
		c0.9,3,3.2,3.5,4.2,6.5c0.4,1.2,0.2,2.3,0.2,4.7c0,0.7-0.1,2-0.5,3.6c-0.5,2.2-0.7,3.3-1.6,4.2c-0.3,0.3-1.3,1.1-2.6,1.3
		c-1,0.1-1.3-0.2-4.3-1c0,0-1.2-0.2-2.1-0.2c-0.2,0-0.3,0.1-1,0.2c0,0-0.7,0.1-1.4,0.2C165,98.8,163.3,98.7,163.3,98.7z"/>
	<path class="st6" d="M171.7,87.8c0,0,0.6-1.5,1-3.3c0.2-0.7,0.2-1.2,0.2-1.8c0.1-1,0.6-3.8,0.8-5c0.8-3.8,1.8-5.5,2.9-9.9
		c1-4.6,1.1-8.2,1.5-8.2c0.2,0,0.5,1.5,0.5,1.6c0.1,1,0,1.8-0.2,2.8c-0.3,1.9-0.3,2.2-0.4,2.6c0,0-0.1,0.4-0.2,0.8
		c-0.2,1-2.9,9.8-3.2,11.6c0,0.3-0.1,0.6-0.1,0.6c-0.2,0.7-0.2,1.1-0.2,1.4c0,0.6,0.1,1.2,0.1,1.4c0.1,0.4,0.2,0.7,0.3,1.1
		c0.2,0.4,0.4,0.6,0.3,0.7s-0.6,0-0.9,0C172.8,84.3,171.8,87.8,171.7,87.8z"/>
</g>
</svg>
