<?xml version="1.0" encoding="utf-8"?>
<!-- Generator: Adobe Illustrator 26.5.0, SVG Export Plug-In . SVG Version: 6.00 Build 0)  -->
<svg version="1.1" id="レイヤー_1" xmlns="http://www.w3.org/2000/svg" xmlns:xlink="http://www.w3.org/1999/xlink" x="0px"
	 y="0px" viewBox="0 0 800 160" style="enable-background:new 0 0 800 160;" xml:space="preserve">
<style type="text/css">
	.st0{fill:#AADCFF;}
	.st1{font-family:'UDDigiKyokashoN-B';}
	.st2{font-size:72px;}
	.st3{letter-spacing:2;}
	.st4{fill:#8CBEFF;}
	.st5{fill:#444444;}
	.st6{fill:#FFDC96;}
	.st7{fill:#F8F8FF;}
	.st8{fill:#EEEEFF;}
</style>
<g id="レイヤー_1_00000029728090393131403270000012216977048501914251_">
	<rect y="-20" class="st0" width="800" height="200"/>
	<text transform="matrix(1 0 0 1 271.7651 103.1678)" class="st1 st2 st3">Portfolio</text>
</g>
<g id="レイヤー_2_00000092430034953507876990000014528118724537559688_">
	<ellipse class="st4" cx="213.6" cy="124.6" rx="25.3" ry="7.7"/>
	<path class="st5" d="M191.7,118.7c-1.7-3.4-12-23.9-9.5-41.1c0.5-3.4,2.9-16.9,6.1-22.3c0.2-0.4,1.6-2.6,2.3-5.8
		c0.4-1.7,0.5-3.5,0.5-5.4c-0.1-2.5-0.9-4.8-2.9-6.5c-1.8-1.6-3.6-3.2-5.9-4.1c0.1-0.1,0.2-0.3,0.4-0.6c0.3-0.4,1-1.1,3.8-1.8
		c0.5-0.1,1-0.3,1.8-0.4c1.4-0.2,2.5-0.3,3.3-0.3c2.5-0.2,4.9-0.8,7.2-1.7c3-1.1,6.1-1.6,9.2-0.6c4.2,1.3,6.8,4.4,8.5,8.4
		c1.5,3.5,2,7.2,3.2,10.8c1.5,4.7,3.7,9.1,5.3,13.7c3.1,9.2,5.4,18.7,6,28.4c0.4,5.8,0.8,11.6,1,17.5c0.1,6.2,2.9,11.1,7.5,15.2
		c0.8,0.8,1.1,1.6,0.4,2.5c-0.9,0-2.3-0.1-3.9-0.3c-3.3-0.4-11-1.5-11.8-4.8c-0.1-0.6,0.1-0.6,0.1-2.4c0-1.6-0.3-2.8-0.6-4.1
		c-0.3-1.3-0.6-2.6-0.7-2.5c-0.4,0,1.9,9.2-2,12.4c-0.9,0.7-1.9,1-2.7,1.1c-8-0.2-13.8-0.5-15.2-0.7c-0.9-0.1-1.7-0.2-1.7-0.2
		s-1-0.2-2.1-0.5c-1.3-0.3-3.6-1.1-6.3-2.4C192.5,119.7,192.1,119.2,191.7,118.7z"/>
	<path class="st6" d="M221.3,125.5c0,0.3,0.1,1.5-0.6,2.1c-0.6,0.5-1.3,0.2-2.1,0.2c-2.8-0.1-5.4,0.7-8.1,1.3
		c-0.9,0.2-1.7,0.5-2-0.8c-0.1-0.7-0.8-0.5-1.3-0.4c-1.1,0.1-2.2,0.2-3.3,0.3c-1.3,0.1-1.5-0.5-1.1-1.6c0.4-1.4,1.6-1.9,2.5-2.7
		c1.7-1.1,3.6-1.1,5.5-1.2c1.3-0.1,2.6,0,3.9-0.3c0.8-0.1,1.4,0,1.8,0c1.4,0.1,2.1,0.1,2.6,0.3C220.1,123.2,221.1,124.2,221.3,125.5
		z"/>
	<path class="st6" d="M201.8,123.4c-0.2,0.3-0.6,0.4-0.9,0.4c-3.2,0.5-6.5,1.1-9.7,1.6c-0.9,0.1-1.9,0-2.9,0
		c-0.8-0.6-1.7-0.1-2.4,0.2c-0.4,0.1-0.8,0.6-1.3,0.1c-0.3-0.4-0.2-0.9-0.1-1.3c0.2-1,0.8-1.8,1.6-2.5c1.7-1.5,3.6-2.4,5.6-3.2
		c2.6,1.7,5.5,2.8,8.6,3.5C201,122.3,201.6,122.5,201.8,123.4z"/>
	<path class="st6" d="M200,37c0.1-1.4,1.1-2.8,1.9-2.7c1,0,2,1.6,1.9,2.9c-0.1,1.2-1.1,2-2.2,2C200.5,39,199.9,38.3,200,37z"/>
	<path class="st6" d="M190.1,32.5c1,0.5,1.9,0.9,2.9,1.5c0.9,0.5,1.3,1.4,1,2.6c-0.2,1.4-1.2,0.9-1.8,0.8c-3-0.8-5.9-1.8-8.9-2.6
		c-1.1-0.3-2.3-0.8-3.6-0.6c-0.1-0.1-0.3-0.1-0.4-0.2c-0.5-0.4-1.5,0-1.6-1c0-1,0.9-1.4,1.6-1.7c2.7-1,5.4-0.4,8,0.3
		C188.4,31.6,189.3,31.9,190.1,32.5z"/>
	<path class="st7" d="M204.1,123.4c-0.4,0-2.3-0.1-4.8-0.9c-1.2-0.3-4.7-1.4-7.6-3.8c-2.4-1.9-3.8-4.3-5.6-8.7
		c-1.9-4.7-4-9.9-5-17.9c-1.9-16.3,2.5-30.5,5.2-35c0.7-1.2,2.1-3,3.1-6.2s0.7-4.7,1.8-5.2c1.8-0.9,3.7,3.1,8.6,3.9
		c4.2,0.8,6.3-1.7,8.2-0.2c1.9,1.4,1.6,4.9,1.2,8c-0.4,4.2-1.6,6.1-3.5,12.3c-1.5,4.7-2.1,7.1-2.4,9c-0.7,5,0,9.9,1.7,14.7
		c0.4,1.1,0.6,2.2,1,3.3c0.4,1.1,1.2,3.5,2,5.4c1.4,2.9,4.6,7.5,6.4,6.9c1-0.3,1.4-2.8,2.2-7.9c0.3-2.2,0.4-3.4,1.1-5.5
		c0.3-1,0.4-1.3,1.4-4c1.8-5.2,2.2-6.5,2.3-6.5c0.2,0-0.1,2.7-0.8,5.2c-0.2,0.6-0.4,1.5-0.8,2.8c-0.2,1.1-0.4,1.6-0.4,2.3
		c-0.1,1.7,0.2,2.9,0.4,3.5c1.1,3.7,4,4.4,5.3,8.1c0.5,1.5,0.3,2.9,0.2,5.9c0,0.9-0.1,2.5-0.6,4.5c-0.6,2.7-0.9,4.1-2,5.3
		c-0.4,0.4-1.6,1.4-3.3,1.6c-1.2,0.1-1.6-0.3-5.4-1.3c0,0-1.5-0.3-2.6-0.2c-0.3,0-0.4,0.1-1.2,0.2c0,0-0.9,0.1-1.8,0.2
		C206.2,123.5,204.1,123.4,204.1,123.4z"/>
	<path class="st8" d="M214.6,109.7c0,0,0.8-1.9,1.3-4.1c0.2-0.9,0.2-1.5,0.3-2.3c0.1-1.2,0.8-4.8,1-6.2c1-4.8,2.3-6.9,3.6-12.4
		c1.3-5.7,1.4-10.2,1.9-10.2c0.3,0,0.6,1.9,0.6,2c0.1,1.3,0,2.3-0.2,3.5c-0.4,2.4-0.4,2.7-0.5,3.3c0,0-0.1,0.5-0.2,1
		c-0.3,1.3-3.6,12.3-4,14.5c0,0.4-0.1,0.8-0.1,0.8c-0.2,0.9-0.2,1.4-0.2,1.8c0,0.8,0.1,1.5,0.1,1.8c0.1,0.5,0.2,0.9,0.4,1.4
		s0.5,0.7,0.4,0.9c-0.1,0.2-0.7,0-1.1,0C216,105.4,214.7,109.7,214.6,109.7z"/>
</g>
</svg>
