<?xml version="1.0" encoding="utf-8"?>
<!-- Generator: Adobe Illustrator 27.0.1, SVG Export Plug-In . SVG Version: 6.00 Build 0)  -->
<svg version="1.1" id="_x30_" xmlns="http://www.w3.org/2000/svg" xmlns:xlink="http://www.w3.org/1999/xlink" x="0px" y="0px"
	 width="320px" height="44px" viewBox="0 0 320 44" style="enable-background:new 0 0 320 44;" xml:space="preserve">
<style type="text/css">
	.st0{fill:#8CBEFF;}
	.st1{fill:#F8F8FF;stroke:#888888;stroke-miterlimit:10;}
	.st2{fill:#444444;}
	.st3{fill:#FFDC96;}
	.st4{fill:#F8F8FF;}
	.st5{fill:#EEEEFF;}
	.st6{fill:none;stroke:#FFFFFF;stroke-width:4;}
	.st7{fill:#303C4E;}
</style>
<g id="Logo">
	<ellipse class="st0" cx="26.3" cy="40.7" rx="10.5" ry="3.2"/>
	<path class="st1" d="M22.4,40.2c-0.2,0-0.9-0.1-2-0.4c-0.5-0.1-2-0.6-3.2-1.6c-1-0.8-1.6-1.8-2.3-3.7c-0.8-2-1.7-4.1-2.1-7.5
		c-0.8-6.8,1-12.7,2.2-14.6c0.3-0.5,0.9-1.3,1.3-2.6c0.4-1.4,0.3-2,0.7-2.2c0.7-0.4,1.6,1.3,3.6,1.6c1.8,0.3,2.6-0.7,3.4-0.1
		c0.8,0.6,0.7,2,0.5,3.3c-0.2,1.8-0.7,2.6-1.5,5.1c-0.6,2-0.9,3-1,3.8c-0.3,2.1,0,4.1,0.7,6.2c0.2,0.5,0.3,0.9,0.4,1.4
		c0.2,0.5,0.5,1.5,0.8,2.2c0.6,1.2,1.9,3.1,2.7,2.9c0.4-0.1,0.6-1.1,0.9-3.3c0.1-0.9,0.2-1.4,0.5-2.3c0.1-0.4,0.2-0.5,0.6-1.7
		c0.7-2.2,0.9-2.7,0.9-2.7c0.1,0-0.1,1.1-0.3,2.2c-0.1,0.3-0.2,0.6-0.3,1.1c-0.1,0.5-0.2,0.7-0.2,0.9c-0.1,0.7,0.1,1.2,0.2,1.5
		c0.5,1.6,1.7,1.8,2.2,3.4c0.2,0.6,0.1,1.2,0.1,2.5c0,0.4-0.1,1-0.3,1.9c-0.3,1.1-0.4,1.7-0.8,2.2c-0.2,0.2-0.7,0.6-1.4,0.7
		c-0.5,0.1-0.7-0.1-2.2-0.5c0,0-0.6-0.1-1.1-0.1c-0.1,0-0.2,0.1-0.5,0.1c0,0-0.4,0.1-0.7,0.1C23.2,40.2,22.4,40.2,22.4,40.2z"/>
	<path class="st2" d="M17.2,38.2c-0.7-1.4-5-10-4-17.2c0.2-1.4,1.2-7,2.6-9.3c0.1-0.2,0.7-1.1,0.9-2.4c0.2-0.7,0.2-1.5,0.2-2.2
		c-0.1-1-0.4-2-1.2-2.7c-0.7-0.7-1.5-1.4-2.5-1.7c0.1-0.1,0.1-0.1,0.2-0.3C13.5,2.3,13.9,2,15,1.7c0.2-0.1,0.4-0.1,0.7-0.2
		c0.6-0.1,1-0.1,1.4-0.1c1-0.1,2-0.3,3-0.7c1.3-0.5,2.6-0.7,3.9-0.3C25.7,1,26.8,2.3,27.5,4c0.6,1.5,0.8,3,1.4,4.5
		c0.6,2,1.6,3.8,2.2,5.7c1.3,3.9,2.2,7.8,2.5,11.8c0.2,2.4,0.3,4.9,0.4,7.3c0.1,2.6,1.2,4.6,3.1,6.4c0.3,0.3,0.5,0.7,0.2,1
		c-0.4,0-0.9-0.1-1.6-0.1c-1.4-0.2-4.6-0.6-4.9-2c-0.1-0.3,0.1-0.3,0.1-1c0-0.7-0.1-1.1-0.3-1.7c-0.1-0.5-0.3-1.1-0.3-1
		c-0.2,0,0.8,3.9-0.8,5.2c-0.4,0.3-0.8,0.4-1.1,0.5c-3.3-0.1-5.7-0.2-6.4-0.3c-0.4-0.1-0.7-0.1-0.7-0.1s-0.4-0.1-0.9-0.2
		c-0.5-0.1-1.5-0.5-2.6-1C17.5,38.7,17.3,38.5,17.2,38.2z"/>
	<path class="st3" d="M29.5,41.1c0,0.1,0.1,0.6-0.3,0.9c-0.3,0.2-0.5,0.1-0.9,0.1c-1.1-0.1-2.2,0.3-3.4,0.5
		c-0.4,0.1-0.7,0.2-0.8-0.3c-0.1-0.3-0.3-0.2-0.5-0.2c-0.5,0.1-0.9,0.1-1.4,0.1c-0.5,0.1-0.6-0.2-0.5-0.7c0.2-0.6,0.7-0.8,1-1.1
		c0.7-0.5,1.5-0.5,2.3-0.5c0.5-0.1,1.1,0,1.6-0.1c0.3-0.1,0.6,0,0.7,0c0.6,0.1,0.9,0.1,1.1,0.1C29,40.1,29.5,40.5,29.5,41.1z"/>
	<path class="st3" d="M21.4,40.2c-0.1,0.1-0.3,0.2-0.4,0.2c-1.4,0.2-2.7,0.5-4.1,0.7c-0.4,0.1-0.8,0-1.2,0c-0.3-0.3-0.7-0.1-1,0.1
		c-0.2,0.1-0.3,0.3-0.5,0.1c-0.1-0.2-0.1-0.4-0.1-0.5c0.1-0.4,0.3-0.7,0.7-1c0.7-0.6,1.5-1,2.3-1.4c1.1,0.7,2.3,1.1,3.6,1.5
		C21.1,39.7,21.3,39.8,21.4,40.2z"/>
	<path class="st3" d="M20.6,4.1C20.7,3.5,21.1,3,21.4,3c0.4,0,0.8,0.7,0.8,1.2S21.7,5,21.3,5C20.8,5,20.6,4.6,20.6,4.1z"/>
	<path class="st3" d="M16.5,2.2c0.4,0.2,0.8,0.4,1.2,0.6c0.4,0.2,0.5,0.6,0.4,1.1c-0.1,0.6-0.5,0.4-0.7,0.3
		c-1.3-0.3-2.5-0.7-3.7-1.1c-0.5-0.1-0.9-0.3-1.5-0.3c-0.1-0.1-0.1-0.1-0.2-0.1c-0.2-0.2-0.6,0-0.7-0.4c0-0.4,0.4-0.6,0.7-0.7
		c1.1-0.4,2.2-0.2,3.3,0.1C15.8,1.9,16.1,2,16.5,2.2z"/>
	<path class="st4" d="M22.4,40.2c-0.2,0-0.9-0.1-2-0.4c-0.5-0.1-2-0.6-3.2-1.6c-1-0.8-1.6-1.8-2.3-3.7c-0.8-2-1.7-4.1-2.1-7.5
		c-0.8-6.8,1-12.7,2.2-14.6c0.3-0.5,0.9-1.3,1.3-2.6c0.4-1.4,0.3-2,0.7-2.2c0.7-0.4,1.6,1.3,3.6,1.6c1.8,0.3,2.6-0.7,3.4-0.1
		c0.8,0.6,0.7,2,0.5,3.3c-0.2,1.8-0.7,2.6-1.5,5.1c-0.6,2-0.9,3-1,3.8c-0.3,2.1,0,4.1,0.7,6.2c0.2,0.5,0.3,0.9,0.4,1.4
		c0.2,0.5,0.5,1.5,0.8,2.2c0.6,1.2,1.9,3.1,2.7,2.9c0.4-0.1,0.6-1.1,0.9-3.3c0.1-0.9,0.2-1.4,0.5-2.3c0.1-0.4,0.2-0.5,0.6-1.7
		c0.7-2.2,0.9-2.7,0.9-2.7c0.1,0-0.1,1.1-0.3,2.2c-0.1,0.3-0.2,0.6-0.3,1.1c-0.1,0.5-0.2,0.7-0.2,0.9c-0.1,0.7,0.1,1.2,0.2,1.5
		c0.5,1.6,1.7,1.8,2.2,3.4c0.2,0.6,0.1,1.2,0.1,2.5c0,0.4-0.1,1-0.3,1.9c-0.3,1.1-0.4,1.7-0.8,2.2c-0.2,0.2-0.7,0.6-1.4,0.7
		c-0.5,0.1-0.7-0.1-2.2-0.5c0,0-0.6-0.1-1.1-0.1c-0.1,0-0.2,0.1-0.5,0.1c0,0-0.4,0.1-0.7,0.1C23.2,40.2,22.4,40.2,22.4,40.2z"/>
	<path class="st5" d="M26.7,34.5c0,0,0.3-0.8,0.5-1.7c0.1-0.4,0.1-0.6,0.1-0.9c0.1-0.5,0.3-2,0.4-2.6c0.4-2,0.9-2.9,1.5-5.2
		c0.5-2.4,0.6-4.3,0.8-4.3c0.1,0,0.3,0.8,0.3,0.8c0.1,0.5,0,0.9-0.1,1.5c-0.2,1-0.2,1.1-0.2,1.4c0,0-0.1,0.2-0.1,0.4
		c-0.1,0.5-1.5,5.1-1.7,6.1c0,0.2-0.1,0.3-0.1,0.3c-0.1,0.4-0.1,0.6-0.1,0.7c0,0.3,0.1,0.6,0.1,0.7c0.1,0.2,0.1,0.4,0.2,0.6
		c0.1,0.2,0.2,0.3,0.2,0.4c-0.1,0.1-0.3,0-0.5,0C27.3,32.7,26.8,34.5,26.7,34.5z"/>
</g>
<g>
	<g>
		<path class="st6" d="M76.9,34.5V8.9h7c2,0,3.5,0.2,4.6,0.5c1.1,0.3,2,0.9,2.7,1.7c0.9,1.1,1.4,2.6,1.4,4.5c0,2.7-0.9,4.8-2.8,6.4
			c-1.8,1.5-4.4,2.3-7.7,2.3h-1.6v10.1H76.9z M80.5,21.6H82c2.2,0,3.8-0.5,5-1.5c1.2-1,1.8-2.4,1.8-4.2c0-1.5-0.5-2.6-1.4-3.3
			c-0.9-0.7-2.5-1-4.6-1h-2.2V21.6z"/>
		<path class="st6" d="M104.4,34.9c-2.8,0-4.9-0.9-6.5-2.6s-2.4-4.1-2.4-7.2c0-3,0.8-5.4,2.4-7.2s3.8-2.6,6.5-2.6s4.9,0.9,6.5,2.6
			s2.4,4.1,2.4,7.2c0,3-0.8,5.4-2.4,7.2S107.1,34.9,104.4,34.9z M104.4,32.3c1.7,0,3-0.6,3.9-1.9c0.9-1.3,1.4-3,1.4-5.4
			c0-2.3-0.5-4.1-1.4-5.3c-0.9-1.3-2.2-1.9-3.9-1.9c-1.7,0-3,0.6-3.9,1.9c-0.9,1.3-1.4,3-1.4,5.3c0,2.3,0.5,4.1,1.4,5.4
			C101.4,31.7,102.7,32.3,104.4,32.3z"/>
		<path class="st6" d="M119,34.5V15.7h3.4v3.5c1.3-2.6,3.3-3.9,5.9-3.9c0.3,0,0.7,0,1.1,0.1v3.2c-0.6-0.2-1.1-0.3-1.6-0.3
			c-2.2,0-4,1.3-5.4,3.8v12.3H119z"/>
		<path class="st6" d="M142.2,34.5c-1,0.3-2,0.4-2.7,0.4c-1.7,0-3.1-0.5-4-1.5c-1-1-1.4-2.4-1.4-4.1v-11h-2.3v-2.6h2.3v-3.4l3.4-0.3
			v3.7h4.9v2.6h-4.9v10.4c0,2.5,1.1,3.7,3.2,3.7c0.4,0,1-0.1,1.6-0.2V34.5z"/>
		<path class="st6" d="M148,34.5V18.3h-2.7v-2.6h2.7v-2.2c0-4.5,2-6.7,6.1-6.7c1.1,0,2.4,0.2,3.9,0.6V10c-1.5-0.5-2.8-0.7-3.7-0.7
			c-1.1,0-1.9,0.3-2.3,0.8c-0.4,0.5-0.6,1.5-0.6,3v2.6h4.7v2.6h-4.7v16.2H148z"/>
		<path class="st6" d="M168.2,34.9c-2.8,0-4.9-0.9-6.5-2.6s-2.4-4.1-2.4-7.2c0-3,0.8-5.4,2.4-7.2s3.8-2.6,6.5-2.6s4.9,0.9,6.5,2.6
			s2.4,4.1,2.4,7.2c0,3-0.8,5.4-2.4,7.2S170.9,34.9,168.2,34.9z M168.2,32.3c1.7,0,3-0.6,3.9-1.9c0.9-1.3,1.4-3,1.4-5.4
			c0-2.3-0.5-4.1-1.4-5.3c-0.9-1.3-2.2-1.9-3.9-1.9c-1.7,0-3,0.6-3.9,1.9c-0.9,1.3-1.4,3-1.4,5.3c0,2.3,0.5,4.1,1.4,5.4
			C165.2,31.7,166.5,32.3,168.2,32.3z"/>
		<path class="st6" d="M182.8,34.5V7.2h3.4v27.3H182.8z"/>
		<path class="st6" d="M193.4,12.3V8.9h3.4v3.4H193.4z M193.4,34.5V15.7h3.4v18.7H193.4z"/>
		<path class="st6" d="M211.4,34.9c-2.8,0-4.9-0.9-6.5-2.6s-2.4-4.1-2.4-7.2c0-3,0.8-5.4,2.4-7.2s3.8-2.6,6.5-2.6s4.9,0.9,6.5,2.6
			s2.4,4.1,2.4,7.2c0,3-0.8,5.4-2.4,7.2S214.1,34.9,211.4,34.9z M211.4,32.3c1.7,0,3-0.6,3.9-1.9c0.9-1.3,1.4-3,1.4-5.4
			c0-2.3-0.5-4.1-1.4-5.3c-0.9-1.3-2.2-1.9-3.9-1.9c-1.7,0-3,0.6-3.9,1.9c-0.9,1.3-1.4,3-1.4,5.3c0,2.3,0.5,4.1,1.4,5.4
			C208.4,31.7,209.7,32.3,211.4,32.3z"/>
	</g>
	<g>
		<path class="st7" d="M76.9,34.5V8.9h7c2,0,3.5,0.2,4.6,0.5c1.1,0.3,2,0.9,2.7,1.7c0.9,1.1,1.4,2.6,1.4,4.5c0,2.7-0.9,4.8-2.8,6.4
			c-1.8,1.5-4.4,2.3-7.7,2.3h-1.6v10.1H76.9z M80.5,21.6H82c2.2,0,3.8-0.5,5-1.5c1.2-1,1.8-2.4,1.8-4.2c0-1.5-0.5-2.6-1.4-3.3
			c-0.9-0.7-2.5-1-4.6-1h-2.2V21.6z"/>
		<path class="st7" d="M104.4,34.9c-2.8,0-4.9-0.9-6.5-2.6s-2.4-4.1-2.4-7.2c0-3,0.8-5.4,2.4-7.2s3.8-2.6,6.5-2.6s4.9,0.9,6.5,2.6
			s2.4,4.1,2.4,7.2c0,3-0.8,5.4-2.4,7.2S107.1,34.9,104.4,34.9z M104.4,32.3c1.7,0,3-0.6,3.9-1.9c0.9-1.3,1.4-3,1.4-5.4
			c0-2.3-0.5-4.1-1.4-5.3c-0.9-1.3-2.2-1.9-3.9-1.9c-1.7,0-3,0.6-3.9,1.9c-0.9,1.3-1.4,3-1.4,5.3c0,2.3,0.5,4.1,1.4,5.4
			C101.4,31.7,102.7,32.3,104.4,32.3z"/>
		<path class="st7" d="M119,34.5V15.7h3.4v3.5c1.3-2.6,3.3-3.9,5.9-3.9c0.3,0,0.7,0,1.1,0.1v3.2c-0.6-0.2-1.1-0.3-1.6-0.3
			c-2.2,0-4,1.3-5.4,3.8v12.3H119z"/>
		<path class="st7" d="M142.2,34.5c-1,0.3-2,0.4-2.7,0.4c-1.7,0-3.1-0.5-4-1.5c-1-1-1.4-2.4-1.4-4.1v-11h-2.3v-2.6h2.3v-3.4l3.4-0.3
			v3.7h4.9v2.6h-4.9v10.4c0,2.5,1.1,3.7,3.2,3.7c0.4,0,1-0.1,1.6-0.2V34.5z"/>
		<path class="st7" d="M148,34.5V18.3h-2.7v-2.6h2.7v-2.2c0-4.5,2-6.7,6.1-6.7c1.1,0,2.4,0.2,3.9,0.6V10c-1.5-0.5-2.8-0.7-3.7-0.7
			c-1.1,0-1.9,0.3-2.3,0.8c-0.4,0.5-0.6,1.5-0.6,3v2.6h4.7v2.6h-4.7v16.2H148z"/>
		<path class="st7" d="M168.2,34.9c-2.8,0-4.9-0.9-6.5-2.6s-2.4-4.1-2.4-7.2c0-3,0.8-5.4,2.4-7.2s3.8-2.6,6.5-2.6s4.9,0.9,6.5,2.6
			s2.4,4.1,2.4,7.2c0,3-0.8,5.4-2.4,7.2S170.9,34.9,168.2,34.9z M168.2,32.3c1.7,0,3-0.6,3.9-1.9c0.9-1.3,1.4-3,1.4-5.4
			c0-2.3-0.5-4.1-1.4-5.3c-0.9-1.3-2.2-1.9-3.9-1.9c-1.7,0-3,0.6-3.9,1.9c-0.9,1.3-1.4,3-1.4,5.3c0,2.3,0.5,4.1,1.4,5.4
			C165.2,31.7,166.5,32.3,168.2,32.3z"/>
		<path class="st7" d="M182.8,34.5V7.2h3.4v27.3H182.8z"/>
		<path class="st7" d="M193.4,12.3V8.9h3.4v3.4H193.4z M193.4,34.5V15.7h3.4v18.7H193.4z"/>
		<path class="st7" d="M211.4,34.9c-2.8,0-4.9-0.9-6.5-2.6s-2.4-4.1-2.4-7.2c0-3,0.8-5.4,2.4-7.2s3.8-2.6,6.5-2.6s4.9,0.9,6.5,2.6
			s2.4,4.1,2.4,7.2c0,3-0.8,5.4-2.4,7.2S214.1,34.9,211.4,34.9z M211.4,32.3c1.7,0,3-0.6,3.9-1.9c0.9-1.3,1.4-3,1.4-5.4
			c0-2.3-0.5-4.1-1.4-5.3c-0.9-1.3-2.2-1.9-3.9-1.9c-1.7,0-3,0.6-3.9,1.9c-0.9,1.3-1.4,3-1.4,5.3c0,2.3,0.5,4.1,1.4,5.4
			C208.4,31.7,209.7,32.3,211.4,32.3z"/>
	</g>
</g>
</svg>
