<?xml version="1.0" encoding="utf-8"?>
<!-- Generator: Adobe Illustrator 27.0.1, SVG Export Plug-In . SVG Version: 6.00 Build 0)  -->
<svg version="1.1" id="_x32_" xmlns="http://www.w3.org/2000/svg" xmlns:xlink="http://www.w3.org/1999/xlink" x="0px" y="0px"
	 width="640px" height="100px" viewBox="0 0 640 100" style="enable-background:new 0 0 640 100;" xml:space="preserve">
<style type="text/css">
	.st0{fill:#009287;}
	.st1{fill:#2A2A2A;}
</style>
<g id="Logo_00000029742087742445517790000006046384453626474413_">
	<path class="st0" d="M42.7,57H22.6C12.9,57,5,49.1,5,39.4s7.9-17.6,17.6-17.6h23.3c3.8,0,7,3.1,7,7s-3.1,7-7,7H22.2
		c-2,0-3.5,1.6-3.5,3.5c0,1.9,1.6,3.5,3.5,3.5h20.1c9.7,0,17.6,7.9,17.6,17.6S52,78.1,42.3,78.1H12c-3.8,0-7-3.1-7-7
		c0-3.9,3.1-7,7-7h30.6c2,0,3.5-1.6,3.5-3.5C46.2,58.6,44.6,57,42.7,57z M57.5,78.1c4.7-3.1,8.1-8.2,9-14.1h11.4
		c1.9,0,3.5-1.6,3.5-3.5V39.4c0-2-1.6-3.5-3.5-3.5H57.1c1.6-1.9,2.7-4.3,2.7-7s-1-5.2-2.7-7h24.1c7.6,0,13.8,6.3,13.8,14.1v28.1
		c0,7.8-6.2,14.1-13.8,14.1C81.3,78.1,57.5,78.1,57.5,78.1z"/>
</g>
<g>
	<path class="st1" d="M153.5,74.2v-7.3c5.9,2.7,10.7,4.1,14.5,4.1c2.9,0,5.2-0.8,7-2.3c1.8-1.5,2.7-3.5,2.7-6c0-2-0.6-3.8-1.7-5.2
		c-1.2-1.4-3.3-3-6.4-4.8l-3.6-2.1c-4.4-2.5-7.6-4.9-9.4-7.2c-1.8-2.2-2.7-4.8-2.7-7.8c0-4,1.5-7.3,4.4-9.9
		c2.9-2.6,6.6-3.9,11.1-3.9c4,0,8.2,0.7,12.7,2v6.8c-5.5-2.2-9.6-3.2-12.3-3.2c-2.6,0-4.7,0.7-6.3,2c-1.7,1.4-2.5,3.1-2.5,5.1
		c0,1.7,0.6,3.3,1.8,4.6c1.2,1.3,3.4,2.9,6.7,4.8l3.7,2.1c4.5,2.6,7.6,5,9.4,7.2c1.8,2.3,2.7,5,2.7,8.2c0,4.5-1.7,8.2-5,10.9
		c-3.3,2.7-7.7,4.1-13.3,4.1C163.4,76.5,159,75.7,153.5,74.2z"/>
	<path class="st1" d="M195.7,89.1V37h6.9v7.2c2.8-5.3,7.1-8,12.8-8c4.6,0,8.2,1.7,10.8,5c2.6,3.4,4,7.9,4,13.7
		c0,6.3-1.5,11.4-4.5,15.3c-3,3.9-6.9,5.8-11.8,5.8c-4.5,0-8.3-1.7-11.3-5.2v18.2H195.7z M202.6,66.1c3.6,3.2,7,4.8,10.2,4.8
		c3.2,0,5.6-1.3,7.4-4c1.7-2.7,2.6-6.4,2.6-11.2c0-8.9-3-13.4-8.9-13.4c-3.9,0-7.6,2.1-11.3,6.3V66.1z"/>
	<path class="st1" d="M269,73.9c-4.6,1.4-8.6,2.1-11.9,2.1c-5.6,0-10.2-1.9-13.8-5.6c-3.5-3.7-5.3-8.6-5.3-14.5
		c0-5.8,1.6-10.5,4.7-14.2c3.1-3.7,7.1-5.5,12-5.5c4.6,0,8.2,1.6,10.7,4.9c2.5,3.3,3.8,8,3.8,14l0,2.1h-24.1c1,9,5.4,13.6,13.3,13.6
		c2.9,0,6.4-0.8,10.6-2.4V73.9z M245.4,52h16.8c0-7.1-2.6-10.7-7.9-10.7C249,41.4,246,44.9,245.4,52z"/>
	<path class="st1" d="M300.8,70.3c-4.1,3.8-8.1,5.7-12,5.7c-3.2,0-5.8-1-7.9-3c-2.1-2-3.1-4.5-3.1-7.5c0-4.2,1.8-7.4,5.3-9.6
		c3.5-2.2,8.5-3.4,15.1-3.4h1.6V48c0-4.4-2.3-6.6-6.9-6.6c-3.6,0-7.5,1.1-11.7,3.4V39c4.7-1.9,9.1-2.8,13.2-2.8c4.2,0,7.4,1,9.4,2.9
		s3,4.9,3,8.9v17.3c0,4,1.2,5.9,3.7,5.9c0.3,0,0.8,0,1.3-0.1l0.5,3.8c-1.6,0.8-3.3,1.1-5.2,1.1C303.8,76.1,301.7,74.1,300.8,70.3z
		 M299.8,66.6v-9.9l-2.2-0.1c-3.8,0-6.9,0.7-9.3,2.1c-2.4,1.4-3.5,3.3-3.5,5.7c0,1.7,0.6,3.1,1.8,4.2c1.2,1.1,2.6,1.7,4.3,1.7
		C293.7,70.4,296.7,69.1,299.8,66.6z"/>
	<path class="st1" d="M320.9,75.2V19.7h6.9v35.9L344,37h7.5L336,54.8l18.7,20.4h-8.9l-18-19.6v19.6H320.9z"/>
	<path class="st1" d="M391,73.9c-4.6,1.4-8.6,2.1-11.9,2.1c-5.6,0-10.2-1.9-13.8-5.6c-3.5-3.7-5.3-8.6-5.3-14.5
		c0-5.8,1.6-10.5,4.7-14.2c3.1-3.7,7.1-5.5,12-5.5c4.6,0,8.2,1.6,10.7,4.9c2.5,3.3,3.8,8,3.8,14l0,2.1H367c1,9,5.4,13.6,13.3,13.6
		c2.9,0,6.4-0.8,10.6-2.4V73.9z M367.3,52h16.8c0-7.1-2.6-10.7-7.9-10.7C370.9,41.4,367.9,44.9,367.3,52z"/>
	<path class="st1" d="M403.1,75.2V37h6.9v7.2c2.7-5.3,6.7-8,12-8c0.7,0,1.4,0.1,2.2,0.2v6.5c-1.2-0.4-2.2-0.6-3.2-0.6
		c-4.4,0-8.1,2.6-11,7.8v25.1H403.1z"/>
	<path class="st1" d="M455.1,75.2v-52h17.3c5.2,0,9.3,0.6,12.5,1.7c3.2,1.1,5.9,3.1,8.2,5.8c3.7,4.4,5.5,10.1,5.5,17.2
		c0,8-2.2,14.6-6.5,19.5c-2.3,2.7-5.1,4.7-8.1,5.9s-6.9,1.8-11.5,1.8H455.1z M462.5,69.7h9.5c6.8,0,11.5-1.8,14.3-5.4
		c3-3.9,4.5-9.1,4.5-15.6c0-6.1-1.5-10.9-4.5-14.4c-1.8-2.1-4-3.6-6.5-4.4c-2.5-0.8-6.3-1.2-11.3-1.2h-6.1V69.7z"/>
	<path class="st1" d="M537.2,73.9c-4.6,1.4-8.6,2.1-11.9,2.1c-5.6,0-10.2-1.9-13.8-5.6c-3.5-3.7-5.3-8.6-5.3-14.5
		c0-5.8,1.6-10.5,4.7-14.2c3.1-3.7,7.1-5.5,12-5.5c4.6,0,8.2,1.6,10.7,4.9c2.5,3.3,3.8,8,3.8,14l0,2.1h-24.1c1,9,5.4,13.6,13.3,13.6
		c2.9,0,6.4-0.8,10.6-2.4V73.9z M513.6,52h16.8c0-7.1-2.6-10.7-7.9-10.7C517.2,41.4,514.2,44.9,513.6,52z"/>
	<path class="st1" d="M575.9,74c-4.5,1.4-8.3,2-11.6,2c-5.2,0-9.4-1.9-12.8-5.7c-3.4-3.8-5.1-8.6-5.1-14.4c0-6.2,1.7-11.1,5-14.5
		c3.4-3.5,8.1-5.2,14.1-5.2c3,0,6.3,0.4,10,1.2v5.8c-3.9-1.1-7.1-1.7-9.5-1.7c-3.6,0-6.4,1.3-8.5,4c-2.1,2.7-3.2,6.2-3.2,10.6
		c0,4.3,1.1,7.8,3.3,10.4c2.2,2.6,5.1,4,8.6,4c3.2,0,6.4-0.8,9.8-2.4V74z"/>
	<path class="st1" d="M586.3,75.2V19.7h6.9v35.9L609.4,37h7.5l-15.5,17.8L620,75.2h-8.9l-18-19.6v19.6H586.3z"/>
</g>
</svg>
