<?xml version="1.0" encoding="utf-8"?>
<!-- Generator: Adobe Illustrator 27.0.1, SVG Export Plug-In . SVG Version: 6.00 Build 0)  -->
<svg version="1.1" id="_x30_" xmlns="http://www.w3.org/2000/svg" xmlns:xlink="http://www.w3.org/1999/xlink" x="0px" y="0px"
	 width="320px" height="44px" viewBox="0 0 320 44" style="enable-background:new 0 0 320 44;" xml:space="preserve">
<style type="text/css">
	.st0{fill:#009287;}
	.st1{fill:none;stroke:#FFFFFF;stroke-width:4;}
	.st2{fill:#303C4E;}
</style>
<g id="Logo_00000029742087742445517790000006046384453626474413_">
	<path class="st0" d="M20.8,25.5H11c-4.7,0-8.5-3.8-8.5-8.5S6.3,8.4,11,8.4h11.3c1.9,0,3.4,1.5,3.4,3.4s-1.5,3.4-3.4,3.4H10.8
		c-1,0-1.7,0.8-1.7,1.7c0,0.9,0.8,1.7,1.7,1.7h9.7c4.7,0,8.5,3.8,8.5,8.5s-3.8,8.5-8.5,8.5H5.9c-1.9,0-3.4-1.5-3.4-3.4
		s1.5-3.4,3.4-3.4h14.8c1,0,1.7-0.8,1.7-1.7C22.5,26.2,21.7,25.5,20.8,25.5z M27.9,35.7c2.3-1.5,3.9-4,4.4-6.8h5.5
		c0.9,0,1.7-0.8,1.7-1.7V17c0-1-0.8-1.7-1.7-1.7h-10c0.8-0.9,1.3-2.1,1.3-3.4s-0.5-2.5-1.3-3.4h11.7c3.7,0,6.7,3.1,6.7,6.8v13.6
		c0,3.8-3,6.8-6.7,6.8C39.5,35.7,27.9,35.7,27.9,35.7z"/>
</g>
<g>
	<g>
		<path class="st1" d="M75.4,34v-3.6c2.9,1.3,5.2,2,7.1,2c1.4,0,2.6-0.4,3.4-1.1c0.9-0.8,1.3-1.7,1.3-2.9c0-1-0.3-1.9-0.9-2.6
			s-1.6-1.5-3.1-2.3l-1.8-1c-2.2-1.2-3.7-2.4-4.6-3.5c-0.9-1.1-1.3-2.4-1.3-3.8c0-2,0.7-3.6,2.1-4.9c1.4-1.3,3.2-1.9,5.5-1.9
			c2,0,4,0.3,6.2,1v3.3c-2.7-1.1-4.7-1.6-6-1.6c-1.3,0-2.3,0.3-3.1,1c-0.8,0.7-1.2,1.5-1.2,2.5c0,0.9,0.3,1.6,0.9,2.3
			c0.6,0.7,1.7,1.4,3.3,2.3l1.8,1c2.2,1.3,3.8,2.4,4.6,3.6c0.9,1.1,1.3,2.5,1.3,4c0,2.2-0.8,4-2.5,5.4s-3.8,2-6.5,2
			C80.2,35.1,78,34.7,75.4,34z"/>
		<path class="st1" d="M93.4,41.3V15.7h3.4v3.5c1.4-2.6,3.5-3.9,6.3-3.9c2.3,0,4,0.8,5.3,2.5s1.9,3.9,1.9,6.7c0,3.1-0.7,5.6-2.2,7.5
			c-1.5,1.9-3.4,2.9-5.8,2.9c-2.2,0-4.1-0.9-5.5-2.6v8.9H93.4z M96.8,30c1.7,1.6,3.4,2.3,5,2.3c1.6,0,2.8-0.7,3.6-2
			c0.9-1.3,1.3-3.1,1.3-5.5c0-4.4-1.4-6.6-4.3-6.6c-1.9,0-3.8,1-5.6,3.1V30z"/>
		<path class="st1" d="M126.8,33.8c-2.3,0.7-4.2,1-5.9,1c-2.8,0-5-0.9-6.8-2.8c-1.7-1.8-2.6-4.2-2.6-7.1c0-2.8,0.8-5.2,2.3-7
			s3.5-2.7,5.9-2.7c2.3,0,4,0.8,5.3,2.4c1.2,1.6,1.9,3.9,1.9,6.9l0,1H115c0.5,4.4,2.7,6.7,6.5,6.7c1.4,0,3.2-0.4,5.2-1.2V33.8z
			 M115.2,23.1h8.3c0-3.5-1.3-5.2-3.9-5.2C116.9,17.8,115.5,19.6,115.2,23.1z"/>
		<path class="st1" d="M139.7,32.1c-2,1.9-4,2.8-5.9,2.8c-1.6,0-2.8-0.5-3.9-1.5s-1.5-2.2-1.5-3.7c0-2,0.9-3.6,2.6-4.7
			c1.7-1.1,4.2-1.6,7.4-1.6h0.8v-2.3c0-2.2-1.1-3.3-3.4-3.3c-1.8,0-3.7,0.6-5.8,1.7v-2.8c2.3-0.9,4.4-1.4,6.5-1.4
			c2.1,0,3.6,0.5,4.6,1.4c1,0.9,1.5,2.4,1.5,4.4v8.5c0,1.9,0.6,2.9,1.8,2.9c0.1,0,0.4,0,0.7-0.1l0.2,1.9c-0.8,0.4-1.6,0.6-2.6,0.6
			C141.2,34.9,140.2,33.9,139.7,32.1z M139.2,30.2v-4.8l-1.1,0c-1.9,0-3.4,0.4-4.6,1.1s-1.7,1.6-1.7,2.8c0,0.8,0.3,1.5,0.9,2.1
			c0.6,0.6,1.3,0.8,2.1,0.8C136.2,32.1,137.7,31.5,139.2,30.2z"/>
		<path class="st1" d="M146.9,34.5V7.2h3.4v17.6l7.9-9.1h3.7l-7.6,8.8l9.2,10h-4.4l-8.8-9.6v9.6H146.9z"/>
		<path class="st1" d="M178.7,33.8c-2.3,0.7-4.2,1-5.9,1c-2.8,0-5-0.9-6.8-2.8c-1.7-1.8-2.6-4.2-2.6-7.1c0-2.8,0.8-5.2,2.3-7
			s3.5-2.7,5.9-2.7c2.3,0,4,0.8,5.3,2.4c1.2,1.6,1.9,3.9,1.9,6.9l0,1h-11.8c0.5,4.4,2.7,6.7,6.5,6.7c1.4,0,3.2-0.4,5.2-1.2V33.8z
			 M167.1,23.1h8.3c0-3.5-1.3-5.2-3.9-5.2C168.8,17.8,167.4,19.6,167.1,23.1z"/>
		<path class="st1" d="M182,34.5V15.7h3.4v3.5c1.3-2.6,3.3-3.9,5.9-3.9c0.3,0,0.7,0,1.1,0.1v3.2c-0.6-0.2-1.1-0.3-1.6-0.3
			c-2.2,0-4,1.3-5.4,3.8v12.3H182z"/>
		<path class="st1" d="M202.2,34.5V8.9h8.5c2.5,0,4.6,0.3,6.1,0.8c1.6,0.6,2.9,1.5,4,2.9c1.8,2.1,2.7,5,2.7,8.5
			c0,3.9-1.1,7.1-3.2,9.6c-1.2,1.3-2.5,2.3-4,2.9c-1.5,0.6-3.4,0.9-5.7,0.9H202.2z M205.8,31.7h4.6c3.3,0,5.7-0.9,7-2.7
			c1.5-1.9,2.2-4.4,2.2-7.6c0-3-0.7-5.4-2.2-7.1c-0.9-1-1.9-1.8-3.2-2.1c-1.2-0.4-3.1-0.6-5.6-0.6h-3V31.7z"/>
		<path class="st1" d="M239.9,33.8c-2.3,0.7-4.2,1-5.9,1c-2.8,0-5-0.9-6.8-2.8c-1.7-1.8-2.6-4.2-2.6-7.1c0-2.8,0.8-5.2,2.3-7
			s3.5-2.7,5.9-2.7c2.3,0,4,0.8,5.3,2.4c1.2,1.6,1.9,3.9,1.9,6.9l0,1h-11.8c0.5,4.4,2.7,6.7,6.5,6.7c1.4,0,3.2-0.4,5.2-1.2V33.8z
			 M228.3,23.1h8.3c0-3.5-1.3-5.2-3.9-5.2C230,17.8,228.6,19.6,228.3,23.1z"/>
		<path class="st1" d="M256.2,33.9c-2.2,0.7-4.1,1-5.7,1c-2.5,0-4.6-0.9-6.3-2.8c-1.7-1.9-2.5-4.2-2.5-7.1c0-3,0.8-5.4,2.5-7.1
			s4-2.6,6.9-2.6c1.5,0,3.1,0.2,4.9,0.6v2.8c-1.9-0.6-3.5-0.8-4.7-0.8c-1.7,0-3.1,0.7-4.2,2c-1,1.3-1.6,3-1.6,5.2
			c0,2.1,0.5,3.8,1.6,5.1c1.1,1.3,2.5,2,4.2,2c1.6,0,3.1-0.4,4.8-1.2V33.9z"/>
		<path class="st1" d="M258.6,34.5V7.2h3.4v17.6l7.9-9.1h3.7l-7.6,8.8l9.2,10h-4.4l-8.8-9.6v9.6H258.6z"/>
	</g>
	<g>
		<path class="st2" d="M75.4,34v-3.6c2.9,1.3,5.2,2,7.1,2c1.4,0,2.6-0.4,3.4-1.1c0.9-0.8,1.3-1.7,1.3-2.9c0-1-0.3-1.9-0.9-2.6
			s-1.6-1.5-3.1-2.3l-1.8-1c-2.2-1.2-3.7-2.4-4.6-3.5c-0.9-1.1-1.3-2.4-1.3-3.8c0-2,0.7-3.6,2.1-4.9c1.4-1.3,3.2-1.9,5.5-1.9
			c2,0,4,0.3,6.2,1v3.3c-2.7-1.1-4.7-1.6-6-1.6c-1.3,0-2.3,0.3-3.1,1c-0.8,0.7-1.2,1.5-1.2,2.5c0,0.9,0.3,1.6,0.9,2.3
			c0.6,0.7,1.7,1.4,3.3,2.3l1.8,1c2.2,1.3,3.8,2.4,4.6,3.6c0.9,1.1,1.3,2.5,1.3,4c0,2.2-0.8,4-2.5,5.4s-3.8,2-6.5,2
			C80.2,35.1,78,34.7,75.4,34z"/>
		<path class="st2" d="M93.4,41.3V15.7h3.4v3.5c1.4-2.6,3.5-3.9,6.3-3.9c2.3,0,4,0.8,5.3,2.5s1.9,3.9,1.9,6.7c0,3.1-0.7,5.6-2.2,7.5
			c-1.5,1.9-3.4,2.9-5.8,2.9c-2.2,0-4.1-0.9-5.5-2.6v8.9H93.4z M96.8,30c1.7,1.6,3.4,2.3,5,2.3c1.6,0,2.8-0.7,3.6-2
			c0.9-1.3,1.3-3.1,1.3-5.5c0-4.4-1.4-6.6-4.3-6.6c-1.9,0-3.8,1-5.6,3.1V30z"/>
		<path class="st2" d="M126.8,33.8c-2.3,0.7-4.2,1-5.9,1c-2.8,0-5-0.9-6.8-2.8c-1.7-1.8-2.6-4.2-2.6-7.1c0-2.8,0.8-5.2,2.3-7
			s3.5-2.7,5.9-2.7c2.3,0,4,0.8,5.3,2.4c1.2,1.6,1.9,3.9,1.9,6.9l0,1H115c0.5,4.4,2.7,6.7,6.5,6.7c1.4,0,3.2-0.4,5.2-1.2V33.8z
			 M115.2,23.1h8.3c0-3.5-1.3-5.2-3.9-5.2C116.9,17.8,115.5,19.6,115.2,23.1z"/>
		<path class="st2" d="M139.7,32.1c-2,1.9-4,2.8-5.9,2.8c-1.6,0-2.8-0.5-3.9-1.5s-1.5-2.2-1.5-3.7c0-2,0.9-3.6,2.6-4.7
			c1.7-1.1,4.2-1.6,7.4-1.6h0.8v-2.3c0-2.2-1.1-3.3-3.4-3.3c-1.8,0-3.7,0.6-5.8,1.7v-2.8c2.3-0.9,4.4-1.4,6.5-1.4
			c2.1,0,3.6,0.5,4.6,1.4c1,0.9,1.5,2.4,1.5,4.4v8.5c0,1.9,0.6,2.9,1.8,2.9c0.1,0,0.4,0,0.7-0.1l0.2,1.9c-0.8,0.4-1.6,0.6-2.6,0.6
			C141.2,34.9,140.2,33.9,139.7,32.1z M139.2,30.2v-4.8l-1.1,0c-1.9,0-3.4,0.4-4.6,1.1s-1.7,1.6-1.7,2.8c0,0.8,0.3,1.5,0.9,2.1
			c0.6,0.6,1.3,0.8,2.1,0.8C136.2,32.1,137.7,31.5,139.2,30.2z"/>
		<path class="st2" d="M146.9,34.5V7.2h3.4v17.6l7.9-9.1h3.7l-7.6,8.8l9.2,10h-4.4l-8.8-9.6v9.6H146.9z"/>
		<path class="st2" d="M178.7,33.8c-2.3,0.7-4.2,1-5.9,1c-2.8,0-5-0.9-6.8-2.8c-1.7-1.8-2.6-4.2-2.6-7.1c0-2.8,0.8-5.2,2.3-7
			s3.5-2.7,5.9-2.7c2.3,0,4,0.8,5.3,2.4c1.2,1.6,1.9,3.9,1.9,6.9l0,1h-11.8c0.5,4.4,2.7,6.7,6.5,6.7c1.4,0,3.2-0.4,5.2-1.2V33.8z
			 M167.1,23.1h8.3c0-3.5-1.3-5.2-3.9-5.2C168.8,17.8,167.4,19.6,167.1,23.1z"/>
		<path class="st2" d="M182,34.5V15.7h3.4v3.5c1.3-2.6,3.3-3.9,5.9-3.9c0.3,0,0.7,0,1.1,0.1v3.2c-0.6-0.2-1.1-0.3-1.6-0.3
			c-2.2,0-4,1.3-5.4,3.8v12.3H182z"/>
		<path class="st2" d="M202.2,34.5V8.9h8.5c2.5,0,4.6,0.3,6.1,0.8c1.6,0.6,2.9,1.5,4,2.9c1.8,2.1,2.7,5,2.7,8.5
			c0,3.9-1.1,7.1-3.2,9.6c-1.2,1.3-2.5,2.3-4,2.9c-1.5,0.6-3.4,0.9-5.7,0.9H202.2z M205.8,31.7h4.6c3.3,0,5.7-0.9,7-2.7
			c1.5-1.9,2.2-4.4,2.2-7.6c0-3-0.7-5.4-2.2-7.1c-0.9-1-1.9-1.8-3.2-2.1c-1.2-0.4-3.1-0.6-5.6-0.6h-3V31.7z"/>
		<path class="st2" d="M239.9,33.8c-2.3,0.7-4.2,1-5.9,1c-2.8,0-5-0.9-6.8-2.8c-1.7-1.8-2.6-4.2-2.6-7.1c0-2.8,0.8-5.2,2.3-7
			s3.5-2.7,5.9-2.7c2.3,0,4,0.8,5.3,2.4c1.2,1.6,1.9,3.9,1.9,6.9l0,1h-11.8c0.5,4.4,2.7,6.7,6.5,6.7c1.4,0,3.2-0.4,5.2-1.2V33.8z
			 M228.3,23.1h8.3c0-3.5-1.3-5.2-3.9-5.2C230,17.8,228.6,19.6,228.3,23.1z"/>
		<path class="st2" d="M256.2,33.9c-2.2,0.7-4.1,1-5.7,1c-2.5,0-4.6-0.9-6.3-2.8c-1.7-1.9-2.5-4.2-2.5-7.1c0-3,0.8-5.4,2.5-7.1
			s4-2.6,6.9-2.6c1.5,0,3.1,0.2,4.9,0.6v2.8c-1.9-0.6-3.5-0.8-4.7-0.8c-1.7,0-3.1,0.7-4.2,2c-1,1.3-1.6,3-1.6,5.2
			c0,2.1,0.5,3.8,1.6,5.1c1.1,1.3,2.5,2,4.2,2c1.6,0,3.1-0.4,4.8-1.2V33.9z"/>
		<path class="st2" d="M258.6,34.5V7.2h3.4v17.6l7.9-9.1h3.7l-7.6,8.8l9.2,10h-4.4l-8.8-9.6v9.6H258.6z"/>
	</g>
</g>
</svg>
