<?xml version="1.0" encoding="utf-8"?>
<!-- Generator: Adobe Illustrator 27.0.1, SVG Export Plug-In . SVG Version: 6.00 Build 0)  -->
<svg version="1.1" id="レイヤー_1" xmlns="http://www.w3.org/2000/svg" xmlns:xlink="http://www.w3.org/1999/xlink" x="0px"
	 y="0px" width="640px" height="128px" viewBox="0 0 640 128" style="enable-background:new 0 0 640 128;" xml:space="preserve">
<style type="text/css">
	.st0{fill:#BFFFDB;}
	.st1{display:none;}
	.st2{display:inline;fill:#8CBEFF;}
	.st3{display:inline;fill:#444444;}
	.st4{display:inline;fill:#FFDC96;}
	.st5{display:inline;fill:#F8F8FF;}
	.st6{display:inline;fill:#EEEEFF;}
	.st7{enable-background:new    ;}
	.st8{fill:#009287;}
</style>
<g id="レイヤー_1_00000029728090393131403270000012216977048501914251_">
	<rect y="-16" class="st0" width="640" height="160"/>
</g>
<g id="レイヤー_2_00000092430034953507876990000014528118724537559688_" class="st1">
	<ellipse class="st2" cx="133.6" cy="108.6" rx="25.3" ry="7.7"/>
	<path class="st3" d="M111.7,102.7c-1.7-3.4-12-23.9-9.5-41.1c0.5-3.4,2.9-16.9,6.1-22.3c0.2-0.4,1.6-2.6,2.3-5.8
		c0.4-1.7,0.5-3.5,0.5-5.4c-0.1-2.5-0.9-4.8-2.9-6.5c-1.8-1.6-3.6-3.2-5.9-4.1c0.1-0.1,0.2-0.3,0.4-0.6c0.3-0.4,1-1.1,3.8-1.8
		c0.5-0.1,1-0.3,1.8-0.4c1.4-0.2,2.5-0.3,3.3-0.3c2.5-0.2,4.9-0.8,7.2-1.7c3-1.1,6.1-1.6,9.2-0.6c4.2,1.3,6.8,4.4,8.5,8.4
		c1.5,3.5,2,7.2,3.2,10.8c1.5,4.7,3.7,9.1,5.3,13.7c3.1,9.2,5.4,18.7,6,28.4c0.4,5.8,0.8,11.6,1,17.5c0.1,6.2,2.9,11.1,7.5,15.2
		c0.8,0.8,1.1,1.6,0.4,2.5c-0.9,0-2.3-0.1-3.9-0.3c-3.3-0.4-11-1.5-11.8-4.8c-0.1-0.6,0.1-0.6,0.1-2.4c0-1.6-0.3-2.8-0.6-4.1
		c-0.3-1.3-0.6-2.6-0.7-2.5c-0.4,0,1.9,9.2-2,12.4c-0.9,0.7-1.9,1-2.7,1.1c-8-0.2-13.8-0.5-15.2-0.7c-0.9-0.1-1.7-0.2-1.7-0.2
		s-1-0.2-2.1-0.5c-1.3-0.3-3.6-1.1-6.3-2.4C112.5,103.7,112.1,103.2,111.7,102.7z"/>
	<path class="st4" d="M141.3,109.5c0,0.3,0.1,1.5-0.6,2.1c-0.6,0.5-1.3,0.2-2.1,0.2c-2.8-0.1-5.4,0.7-8.1,1.3
		c-0.9,0.2-1.7,0.5-2-0.8c-0.1-0.7-0.8-0.5-1.3-0.4c-1.1,0.1-2.2,0.2-3.3,0.3c-1.3,0.1-1.5-0.5-1.1-1.6c0.4-1.4,1.6-1.9,2.5-2.7
		c1.7-1.1,3.6-1.1,5.5-1.2c1.3-0.1,2.6,0,3.9-0.3c0.8-0.1,1.4,0,1.8,0c1.4,0.1,2.1,0.1,2.6,0.3C140.1,107.2,141.1,108.2,141.3,109.5
		z"/>
	<path class="st4" d="M121.8,107.4c-0.2,0.3-0.6,0.4-0.9,0.4c-3.2,0.5-6.5,1.1-9.7,1.6c-0.9,0.1-1.9,0-2.9,0
		c-0.8-0.6-1.7-0.1-2.4,0.2c-0.4,0.1-0.8,0.6-1.3,0.1c-0.3-0.4-0.2-0.9-0.1-1.3c0.2-1,0.8-1.8,1.6-2.5c1.7-1.5,3.6-2.4,5.6-3.2
		c2.6,1.7,5.5,2.8,8.6,3.5C121,106.3,121.6,106.5,121.8,107.4z"/>
	<path class="st4" d="M120,21c0.1-1.4,1.1-2.8,1.9-2.7c1,0,2,1.6,1.9,2.9c-0.1,1.2-1.1,2-2.2,2C120.5,23,119.9,22.3,120,21z"/>
	<path class="st4" d="M110.1,16.5c1,0.5,1.9,0.9,2.9,1.5c0.9,0.5,1.3,1.4,1,2.6c-0.2,1.4-1.2,0.9-1.8,0.8c-3-0.8-5.9-1.8-8.9-2.6
		c-1.1-0.3-2.3-0.8-3.6-0.6c-0.1-0.1-0.3-0.1-0.4-0.2c-0.5-0.4-1.5,0-1.6-1c0-1,0.9-1.4,1.6-1.7c2.7-1,5.4-0.4,8,0.3
		C108.4,15.6,109.3,15.9,110.1,16.5z"/>
	<path class="st5" d="M124.1,107.4c-0.4,0-2.3-0.1-4.8-0.9c-1.2-0.3-4.7-1.4-7.6-3.8c-2.4-1.9-3.8-4.3-5.6-8.7
		c-1.9-4.7-4-9.9-5-17.9c-1.9-16.3,2.5-30.5,5.2-35c0.7-1.2,2.1-3,3.1-6.2s0.7-4.7,1.8-5.2c1.8-0.9,3.7,3.1,8.6,3.9
		c4.2,0.8,6.3-1.7,8.2-0.2c1.9,1.4,1.6,4.9,1.2,8c-0.4,4.2-1.6,6.1-3.5,12.3c-1.5,4.7-2.1,7.1-2.4,9c-0.7,5,0,9.9,1.7,14.7
		c0.4,1.1,0.6,2.2,1,3.3c0.4,1.1,1.2,3.5,2,5.4c1.4,2.9,4.6,7.5,6.4,6.9c1-0.3,1.4-2.8,2.2-7.9c0.3-2.2,0.4-3.4,1.1-5.5
		c0.3-1,0.4-1.3,1.4-4c1.8-5.2,2.2-6.5,2.3-6.5c0.2,0-0.1,2.7-0.8,5.2c-0.2,0.6-0.4,1.5-0.8,2.8c-0.2,1.1-0.4,1.6-0.4,2.3
		c-0.1,1.7,0.2,2.9,0.4,3.5c1.1,3.7,4,4.4,5.3,8.1c0.5,1.5,0.3,2.9,0.2,5.9c0,0.9-0.1,2.5-0.6,4.5c-0.6,2.7-0.9,4.1-2,5.3
		c-0.4,0.4-1.6,1.4-3.3,1.6c-1.2,0.1-1.6-0.3-5.4-1.3c0,0-1.5-0.3-2.6-0.2c-0.3,0-0.4,0.1-1.2,0.2c0,0-0.9,0.1-1.8,0.2
		C126.2,107.5,124.1,107.4,124.1,107.4z"/>
	<path class="st6" d="M134.6,93.7c0,0,0.8-1.9,1.3-4.1c0.2-0.9,0.2-1.5,0.3-2.3c0.1-1.2,0.8-4.8,1-6.2c1-4.8,2.3-6.9,3.6-12.4
		c1.3-5.7,1.4-10.2,1.9-10.2c0.3,0,0.6,1.9,0.6,2c0.1,1.3,0,2.3-0.2,3.5c-0.4,2.4-0.4,2.7-0.5,3.3c0,0-0.1,0.5-0.2,1
		c-0.3,1.3-3.6,12.3-4,14.5c0,0.4-0.1,0.8-0.1,0.8c-0.2,0.9-0.2,1.4-0.2,1.8c0,0.8,0.1,1.5,0.1,1.8c0.1,0.5,0.2,0.9,0.4,1.4
		s0.5,0.7,0.4,0.9c-0.1,0.2-0.7,0-1.1,0C136,89.4,134.7,93.7,134.6,93.7z"/>
</g>
<g>
	<g class="st7">
		<path d="M204.2,82.4c-1.8-0.4-3.6-1-5.3-1.8c-1.7-0.7-3.1-1.7-4.4-2.7l3.6-6.3c1.6,1.3,3.4,2.3,5.4,3c2.1,0.7,4.2,1,6.3,1
			c2.5,0,4.5-0.4,5.8-1.3c1.4-0.9,2.1-2.1,2.1-3.6l0,0c0-1.1-0.3-1.9-1-2.6s-1.4-1.1-2.4-1.4s-2.2-0.6-3.8-0.8c-0.1,0-0.1,0-0.2,0
			s-0.1,0-0.2,0l-0.6-0.1c-2.7-0.4-5-1-6.8-1.6c-1.8-0.6-3.4-1.8-4.6-3.4c-1.3-1.6-1.9-3.9-1.9-6.9l0,0c0-2.6,0.6-4.9,1.8-6.8
			c1.2-1.9,2.9-3.3,5.1-4.3c2.2-1,5-1.4,8.2-1.4c1.4,0,3,0.2,4.5,0.5c1.5,0.3,3,0.8,4.5,1.4c1.4,0.6,2.9,1.4,4.2,2.3l-3.3,6.6
			c-1.6-1.1-3.2-1.9-5-2.6s-3.4-0.9-5-0.9c-2.4,0-4.2,0.4-5.5,1.2s-1.9,1.8-1.9,3.3l0,0c0,1.2,0.3,2.1,1,2.8
			c0.7,0.7,1.5,1.2,2.5,1.5c1,0.3,2.4,0.6,4.2,1c0.1,0,0.2,0,0.2,0.1c0.1,0,0.2,0,0.2,0.1c0.1,0,0.2,0.1,0.3,0.1s0.2,0.1,0.3,0.1
			c2.6,0.5,4.7,1.1,6.5,1.8s3.2,1.9,4.3,3.5c1.2,1.6,1.8,3.8,1.8,6.6v0.1c0,2.6-0.6,4.8-1.8,6.7c-1.2,1.8-3,3.3-5.4,4.2
			c-2.4,1-5.1,1.4-8.4,1.4C208,83,206.1,82.7,204.2,82.4z"/>
		<path d="M233.5,53.4h7.7v41h-7.7V53.4z M243.6,81.7c-1.2-0.9-2.2-2.1-2.7-3.7l0.4-6.6c0,1,0.2,1.8,0.5,2.5s0.8,1.2,1.4,1.5
			c0.6,0.3,1.4,0.6,2.3,0.6c1.4,0,2.6-0.5,3.4-1.4s1.2-2.3,1.2-4.1v-4.6c0-1.8-0.4-3.2-1.2-4.2c-0.8-1-1.9-1.4-3.4-1.4
			c-0.9,0-1.7,0.2-2.3,0.6c-0.6,0.4-1.1,0.9-1.4,1.6s-0.5,1.5-0.5,2.6l-0.6-6.5c0.8-1.7,1.8-3,3.1-3.9c1.3-1,2.7-1.4,4.2-1.4
			c2.1,0,3.8,0.5,5.3,1.5c1.4,1,2.6,2.5,3.4,4.3c0.8,1.9,1.1,4.2,1.1,6.9v4.6c0,2.6-0.4,5-1.1,6.8c-0.8,1.9-1.9,3.4-3.4,4.3
			c-1.4,1-3.2,1.5-5.3,1.5C246.3,83,244.9,82.6,243.6,81.7z"/>
		<path d="M271.8,81.4c-2-1-3.5-2.5-4.6-4.5c-1-1.9-1.6-4.3-1.6-7v-3.3c0-2.9,0.5-5.4,1.5-7.4c1-2.1,2.5-3.6,4.4-4.6
			c1.9-1,4.2-1.6,7-1.6c2.6,0,4.7,0.6,6.6,1.9s3.2,3.1,4.2,5.5c1,2.4,1.4,5.4,1.4,8.8v1.9h-20V66h13l-0.1-0.6
			c-0.2-1.7-0.7-3-1.6-3.9c-0.9-0.9-2-1.4-3.4-1.4c-1.8,0-3.3,0.6-4.3,1.7c-1,1.1-1.5,2.6-1.5,4.7v3.7c0,2,0.6,3.5,1.7,4.6
			c1.1,1.1,2.6,1.6,4.7,1.6c1,0,2.1-0.2,3-0.6c1-0.4,1.9-0.9,2.7-1.6l5,4.5c-1.5,1.4-3.2,2.5-5.1,3.2c-1.9,0.7-3.8,1.1-5.8,1.1
			C276.2,83,273.8,82.5,271.8,81.4z"/>
		<path d="M299.8,80.7c-1.5-1.5-2.3-3.8-2.3-6.8c0-2.9,0.9-5,2.6-6.5c1.8-1.4,4.3-2.2,7.8-2.2h7.3l0.4,5.8h-7.7
			c-1.2,0-2,0.2-2.6,0.7c-0.6,0.5-0.9,1.1-0.9,2.1s0.4,1.7,1.1,2.2c0.7,0.5,1.8,0.7,3.3,0.7c2.1,0,3.6-0.2,4.6-0.7
			c1-0.5,1.5-1.2,1.5-2.2l0.6,4.2c-0.1,1-0.6,1.9-1.4,2.6c-0.9,0.7-1.9,1.3-3.2,1.7s-2.6,0.6-4.1,0.6
			C303.7,83,301.4,82.2,299.8,80.7z M315,64c0-1.4-0.5-2.4-1.4-3.1s-2.2-1.1-3.8-1.1c-1.1,0-2.2,0.2-3.2,0.6c-1,0.4-2,0.9-2.9,1.5
			l-4.8-4.7c1.2-1.4,2.7-2.4,4.6-3.1c1.9-0.7,4-1.1,6.3-1.1c2.6,0,4.7,0.4,6.6,1.3c1.8,0.9,3.2,2.1,4.2,3.7c1,1.6,1.4,3.6,1.4,5.8
			v18.7h-7V64z"/>
		<path d="M331.1,41.7h7.7v40.9h-7.7V41.7z M334.7,72l13.6-18.6h8.2l-20.7,27.2L334.7,72z M341.6,67.4l6.3-3.8l9.9,18.9H349
			L341.6,67.4z"/>
		<path d="M368.4,81.4c-2-1-3.5-2.5-4.6-4.5c-1-1.9-1.6-4.3-1.6-7v-3.3c0-2.9,0.5-5.4,1.5-7.4c1-2.1,2.5-3.6,4.4-4.6
			c1.9-1,4.2-1.6,7-1.6c2.6,0,4.7,0.6,6.6,1.9s3.2,3.1,4.2,5.5c1,2.4,1.4,5.4,1.4,8.8v1.9h-20V66h13l-0.1-0.6
			c-0.2-1.7-0.7-3-1.6-3.9c-0.9-0.9-2-1.4-3.4-1.4c-1.8,0-3.3,0.6-4.3,1.7c-1,1.1-1.5,2.6-1.5,4.7v3.7c0,2,0.6,3.5,1.7,4.6
			c1.1,1.1,2.6,1.6,4.7,1.6c1,0,2.1-0.2,3-0.6c1-0.4,1.9-0.9,2.7-1.6l5,4.5c-1.5,1.4-3.2,2.5-5.1,3.2c-1.9,0.7-3.8,1.1-5.8,1.1
			C372.8,83,370.4,82.5,368.4,81.4z"/>
		<path d="M395.5,53.4h8.2v29.2h-8.2V53.4z M410.6,60.6c-0.6-0.2-1.2-0.3-1.9-0.3c-1.5,0-2.8,0.5-3.6,1.5c-0.9,1-1.3,2.4-1.3,4.2
			l-0.6-7.6c0.8-1.8,1.8-3.1,3.1-4.1c1.3-1,2.7-1.4,4.2-1.4c1.2,0,2.3,0.2,3.3,0.6c1,0.4,1.8,1,2.6,1.7l-4.5,6.2
			C411.6,61.1,411.1,60.8,410.6,60.6z"/>
		<path d="M439.3,41.7h7.7v40.9h-7.7V41.7z M443.1,75.1h9.8c2.6,0,4.5-0.6,5.8-1.8c1.4-1.2,2.1-3,2.1-5.2v-12c0-2.2-0.7-3.9-2.1-5.2
			c-1.4-1.3-3.4-1.8-5.8-1.8h-9.8v-7.4h9.7c3.4,0,6.3,0.6,8.7,1.7s4.2,2.8,5.5,5c1.3,2.2,1.9,4.8,1.9,7.9v11.6c0,3-0.6,5.5-1.8,7.7
			c-1.2,2.2-3,3.9-5.4,5.1c-2.4,1.2-5.4,1.8-8.9,1.8h-9.6L443.1,75.1L443.1,75.1z"/>
		<path d="M483.4,81.4c-2-1-3.5-2.5-4.6-4.5c-1-1.9-1.6-4.3-1.6-7v-3.3c0-2.9,0.5-5.4,1.5-7.4c1-2.1,2.5-3.6,4.4-4.6
			c1.9-1,4.2-1.6,7-1.6c2.6,0,4.7,0.6,6.6,1.9s3.2,3.1,4.2,5.5c1,2.4,1.4,5.4,1.4,8.8v1.9h-20V66h13l-0.1-0.6
			c-0.2-1.7-0.7-3-1.6-3.9c-0.9-0.9-2-1.4-3.4-1.4c-1.8,0-3.3,0.6-4.3,1.7c-1,1.1-1.5,2.6-1.5,4.7v3.7c0,2,0.6,3.5,1.7,4.6
			c1.1,1.1,2.6,1.6,4.7,1.6c1,0,2.1-0.2,3-0.6c1-0.4,1.9-0.9,2.7-1.6l5,4.5c-1.5,1.4-3.2,2.5-5.1,3.2c-1.9,0.7-3.8,1.1-5.8,1.1
			C487.8,83,485.4,82.5,483.4,81.4z"/>
		<path d="M515.7,81.4c-2-1-3.5-2.6-4.5-4.6s-1.5-4.5-1.5-7.3v-3.1c0-2.8,0.5-5.3,1.5-7.3s2.6-3.5,4.5-4.6s4.3-1.6,7.1-1.6
			c1.6,0,3.1,0.2,4.5,0.6c1.4,0.4,2.7,0.9,3.8,1.6c1.1,0.7,2.1,1.5,2.8,2.6l-5,4.8c-0.7-0.6-1.5-1.2-2.5-1.5c-1-0.3-1.9-0.6-3-0.6
			c-1.9,0-3.4,0.6-4.6,1.6c-1.1,1-1.6,2.5-1.6,4.4v3.1c0,1.9,0.6,3.4,1.6,4.5c1,1,2.6,1.6,4.6,1.6c1,0,2.1-0.2,3-0.6s1.8-1,2.5-1.7
			l5,5.1c-0.8,1-1.7,1.8-2.9,2.5c-1.2,0.6-2.4,1.2-3.8,1.6c-1.4,0.4-2.9,0.6-4.5,0.6C520.1,83,517.7,82.4,515.7,81.4z"/>
		<path d="M540.7,41.7h7.7v40.9h-7.7V41.7z M544.3,72l13.6-18.6h8.2l-20.7,27.2L544.3,72z M551.3,67.4l6.3-3.8l9.9,18.9h-8.9
			L551.3,67.4z"/>
	</g>
</g>
<g>
	<path class="st8" d="M111.8,71.7H89.8c-10.6,0-19.2-8.6-19.2-19.2s8.6-19.2,19.2-19.2h25.5c4.2,0,7.7,3.4,7.7,7.7s-3.4,7.7-7.7,7.7
		H89.4c-2.2,0-3.8,1.8-3.8,3.8c0,2.1,1.8,3.8,3.8,3.8h21.9c10.6,0,19.2,8.6,19.2,19.2s-8.6,19.2-19.2,19.2h-33
		c-4.2,0-7.7-3.4-7.7-7.7s3.4-7.7,7.7-7.7h33.4c2.2,0,3.8-1.8,3.8-3.8C115.6,73.4,113.8,71.7,111.8,71.7z M127.9,94.7
		c5.1-3.4,8.8-9,9.8-15.4h12.4c2.1,0,3.8-1.8,3.8-3.8v-23c0-2.2-1.7-3.8-3.8-3.8h-22.6c1.8-2.1,2.9-4.7,2.9-7.7c0-3-1.1-5.7-2.9-7.7
		h26.3c8.3,0,15.1,6.9,15.1,15.4v30.7c0,8.5-6.8,15.4-15.1,15.4C153.9,94.7,127.9,94.7,127.9,94.7z"/>
</g>
</svg>
