<?xml version="1.0" encoding="utf-8"?>
<!-- Generator: Adobe Illustrator 26.5.0, SVG Export Plug-In . SVG Version: 6.00 Build 0)  -->
<svg version="1.1" id="レイヤー_1" xmlns="http://www.w3.org/2000/svg" xmlns:xlink="http://www.w3.org/1999/xlink" x="0px"
	 y="0px" viewBox="0 0 800 160" style="enable-background:new 0 0 800 160;" xml:space="preserve">
<style type="text/css">
	.st0{fill:#BFFFDB;}
	.st1{display:none;}
	.st2{display:inline;fill:#8CBEFF;}
	.st3{display:inline;fill:#444444;}
	.st4{display:inline;fill:#FFDC96;}
	.st5{display:inline;fill:#F8F8FF;}
	.st6{display:inline;fill:#EEEEFF;}
	.st7{enable-background:new    ;}
	.st8{fill:#009287;}
</style>
<g id="レイヤー_1_00000029728090393131403270000012216977048501914251_">
	<rect y="-20" class="st0" width="800" height="200"/>
</g>
<g id="レイヤー_2_00000092430034953507876990000014528118724537559688_" class="st1">
	<ellipse class="st2" cx="213.6" cy="124.6" rx="25.3" ry="7.7"/>
	<path class="st3" d="M191.7,118.7c-1.7-3.4-12-23.9-9.5-41.1c0.5-3.4,2.9-16.9,6.1-22.3c0.2-0.4,1.6-2.6,2.3-5.8
		c0.4-1.7,0.5-3.5,0.5-5.4c-0.1-2.5-0.9-4.8-2.9-6.5c-1.8-1.6-3.6-3.2-5.9-4.1c0.1-0.1,0.2-0.3,0.4-0.6c0.3-0.4,1-1.1,3.8-1.8
		c0.5-0.1,1-0.3,1.8-0.4c1.4-0.2,2.5-0.3,3.3-0.3c2.5-0.2,4.9-0.8,7.2-1.7c3-1.1,6.1-1.6,9.2-0.6c4.2,1.3,6.8,4.4,8.5,8.4
		c1.5,3.5,2,7.2,3.2,10.8c1.5,4.7,3.7,9.1,5.3,13.7c3.1,9.2,5.4,18.7,6,28.4c0.4,5.8,0.8,11.6,1,17.5c0.1,6.2,2.9,11.1,7.5,15.2
		c0.8,0.8,1.1,1.6,0.4,2.5c-0.9,0-2.3-0.1-3.9-0.3c-3.3-0.4-11-1.5-11.8-4.8c-0.1-0.6,0.1-0.6,0.1-2.4c0-1.6-0.3-2.8-0.6-4.1
		c-0.3-1.3-0.6-2.6-0.7-2.5c-0.4,0,1.9,9.2-2,12.4c-0.9,0.7-1.9,1-2.7,1.1c-8-0.2-13.8-0.5-15.2-0.7c-0.9-0.1-1.7-0.2-1.7-0.2
		s-1-0.2-2.1-0.5c-1.3-0.3-3.6-1.1-6.3-2.4C192.5,119.7,192.1,119.2,191.7,118.7z"/>
	<path class="st4" d="M221.3,125.5c0,0.3,0.1,1.5-0.6,2.1c-0.6,0.5-1.3,0.2-2.1,0.2c-2.8-0.1-5.4,0.7-8.1,1.3
		c-0.9,0.2-1.7,0.5-2-0.8c-0.1-0.7-0.8-0.5-1.3-0.4c-1.1,0.1-2.2,0.2-3.3,0.3c-1.3,0.1-1.5-0.5-1.1-1.6c0.4-1.4,1.6-1.9,2.5-2.7
		c1.7-1.1,3.6-1.1,5.5-1.2c1.3-0.1,2.6,0,3.9-0.3c0.8-0.1,1.4,0,1.8,0c1.4,0.1,2.1,0.1,2.6,0.3C220.1,123.2,221.1,124.2,221.3,125.5
		z"/>
	<path class="st4" d="M201.8,123.4c-0.2,0.3-0.6,0.4-0.9,0.4c-3.2,0.5-6.5,1.1-9.7,1.6c-0.9,0.1-1.9,0-2.9,0
		c-0.8-0.6-1.7-0.1-2.4,0.2c-0.4,0.1-0.8,0.6-1.3,0.1c-0.3-0.4-0.2-0.9-0.1-1.3c0.2-1,0.8-1.8,1.6-2.5c1.7-1.5,3.6-2.4,5.6-3.2
		c2.6,1.7,5.5,2.8,8.6,3.5C201,122.3,201.6,122.5,201.8,123.4z"/>
	<path class="st4" d="M200,37c0.1-1.4,1.1-2.8,1.9-2.7c1,0,2,1.6,1.9,2.9c-0.1,1.2-1.1,2-2.2,2C200.5,39,199.9,38.3,200,37z"/>
	<path class="st4" d="M190.1,32.5c1,0.5,1.9,0.9,2.9,1.5c0.9,0.5,1.3,1.4,1,2.6c-0.2,1.4-1.2,0.9-1.8,0.8c-3-0.8-5.9-1.8-8.9-2.6
		c-1.1-0.3-2.3-0.8-3.6-0.6c-0.1-0.1-0.3-0.1-0.4-0.2c-0.5-0.4-1.5,0-1.6-1c0-1,0.9-1.4,1.6-1.7c2.7-1,5.4-0.4,8,0.3
		C188.4,31.6,189.3,31.9,190.1,32.5z"/>
	<path class="st5" d="M204.1,123.4c-0.4,0-2.3-0.1-4.8-0.9c-1.2-0.3-4.7-1.4-7.6-3.8c-2.4-1.9-3.8-4.3-5.6-8.7
		c-1.9-4.7-4-9.9-5-17.9c-1.9-16.3,2.5-30.5,5.2-35c0.7-1.2,2.1-3,3.1-6.2s0.7-4.7,1.8-5.2c1.8-0.9,3.7,3.1,8.6,3.9
		c4.2,0.8,6.3-1.7,8.2-0.2c1.9,1.4,1.6,4.9,1.2,8c-0.4,4.2-1.6,6.1-3.5,12.3c-1.5,4.7-2.1,7.1-2.4,9c-0.7,5,0,9.9,1.7,14.7
		c0.4,1.1,0.6,2.2,1,3.3c0.4,1.1,1.2,3.5,2,5.4c1.4,2.9,4.6,7.5,6.4,6.9c1-0.3,1.4-2.8,2.2-7.9c0.3-2.2,0.4-3.4,1.1-5.5
		c0.3-1,0.4-1.3,1.4-4c1.8-5.2,2.2-6.5,2.3-6.5c0.2,0-0.1,2.7-0.8,5.2c-0.2,0.6-0.4,1.5-0.8,2.8c-0.2,1.1-0.4,1.6-0.4,2.3
		c-0.1,1.7,0.2,2.9,0.4,3.5c1.1,3.7,4,4.4,5.3,8.1c0.5,1.5,0.3,2.9,0.2,5.9c0,0.9-0.1,2.5-0.6,4.5c-0.6,2.7-0.9,4.1-2,5.3
		c-0.4,0.4-1.6,1.4-3.3,1.6c-1.2,0.1-1.6-0.3-5.4-1.3c0,0-1.5-0.3-2.6-0.2c-0.3,0-0.4,0.1-1.2,0.2c0,0-0.9,0.1-1.8,0.2
		C206.2,123.5,204.1,123.4,204.1,123.4z"/>
	<path class="st6" d="M214.6,109.7c0,0,0.8-1.9,1.3-4.1c0.2-0.9,0.2-1.5,0.3-2.3c0.1-1.2,0.8-4.8,1-6.2c1-4.8,2.3-6.9,3.6-12.4
		c1.3-5.7,1.4-10.2,1.9-10.2c0.3,0,0.6,1.9,0.6,2c0.1,1.3,0,2.3-0.2,3.5c-0.4,2.4-0.4,2.7-0.5,3.3c0,0-0.1,0.5-0.2,1
		c-0.3,1.3-3.6,12.3-4,14.5c0,0.4-0.1,0.8-0.1,0.8c-0.2,0.9-0.2,1.4-0.2,1.8c0,0.8,0.1,1.5,0.1,1.8c0.1,0.5,0.2,0.9,0.4,1.4
		s0.5,0.7,0.4,0.9c-0.1,0.2-0.7,0-1.1,0C216,105.4,214.7,109.7,214.6,109.7z"/>
</g>
<g>
	<g class="st7">
		<path d="M255.3,103c-2.3-0.5-4.5-1.2-6.6-2.2c-2.1-0.9-3.9-2.1-5.5-3.4l4.5-7.9c2,1.6,4.2,2.9,6.8,3.7c2.6,0.9,5.2,1.3,7.9,1.3
			c3.1,0,5.6-0.5,7.3-1.6c1.7-1.1,2.6-2.6,2.6-4.5v0c0-1.4-0.4-2.4-1.2-3.2s-1.8-1.4-3-1.8c-1.2-0.4-2.8-0.7-4.8-1
			c-0.1,0-0.1,0-0.2,0c-0.1,0-0.1,0-0.2,0l-0.8-0.1c-3.4-0.5-6.3-1.2-8.5-2s-4.2-2.2-5.7-4.3c-1.6-2-2.4-4.9-2.4-8.6v0
			c0-3.3,0.7-6.1,2.2-8.5s3.6-4.1,6.4-5.4s6.2-1.8,10.2-1.8c1.8,0,3.7,0.2,5.6,0.6c1.9,0.4,3.8,1,5.6,1.8s3.6,1.8,5.2,2.9l-4.1,8.2
			c-2-1.4-4-2.4-6.2-3.2s-4.2-1.1-6.2-1.1c-3,0-5.2,0.5-6.9,1.5s-2.4,2.3-2.4,4.1v0c0,1.5,0.4,2.6,1.3,3.5s1.9,1.5,3.1,1.9
			c1.2,0.4,3,0.8,5.2,1.3c0.1,0,0.2,0,0.3,0.1c0.1,0,0.2,0,0.3,0.1c0.1,0,0.3,0.1,0.4,0.1c0.1,0,0.3,0.1,0.4,0.1
			c3.2,0.6,5.9,1.4,8.1,2.3c2.2,0.9,4,2.4,5.4,4.4c1.5,2,2.2,4.7,2.2,8.2v0.1c0,3.3-0.8,6-2.3,8.4c-1.5,2.3-3.7,4.1-6.7,5.3
			s-6.4,1.8-10.5,1.8C260,103.7,257.6,103.4,255.3,103z"/>
		<path d="M291.9,66.7h9.6V118h-9.6V66.7z M304.5,102.1c-1.5-1.1-2.7-2.6-3.4-4.6l0.5-8.3c0,1.2,0.2,2.2,0.6,3.1s1,1.5,1.8,1.9
			s1.8,0.7,2.9,0.7c1.8,0,3.2-0.6,4.2-1.8c1-1.2,1.5-2.9,1.5-5.1v-5.8c0-2.2-0.5-4-1.5-5.2c-1-1.2-2.4-1.8-4.2-1.8
			c-1.1,0-2.1,0.2-2.9,0.7s-1.4,1.1-1.8,2s-0.6,1.9-0.6,3.2l-0.7-8.1c1-2.1,2.3-3.8,3.9-4.9c1.6-1.2,3.4-1.7,5.3-1.7
			c2.6,0,4.8,0.6,6.6,1.9c1.8,1.2,3.2,3.1,4.2,5.4c1,2.4,1.4,5.3,1.4,8.6v5.8c0,3.3-0.5,6.2-1.4,8.5c-1,2.4-2.4,4.2-4.2,5.4
			c-1.8,1.2-4,1.9-6.6,1.9C307.9,103.7,306.1,103.2,304.5,102.1z"/>
		<path d="M339.7,101.8c-2.5-1.3-4.4-3.1-5.7-5.6c-1.3-2.4-2-5.4-2-8.8v-4.1c0-3.6,0.6-6.7,1.9-9.2c1.3-2.6,3.1-4.5,5.5-5.8
			c2.4-1.3,5.3-2,8.7-2c3.2,0,5.9,0.8,8.2,2.4c2.3,1.6,4,3.9,5.2,6.9c1.2,3,1.8,6.7,1.8,11v2.4h-25v-6.5h16.2l-0.1-0.8
			c-0.3-2.1-0.9-3.7-2-4.9c-1.1-1.1-2.5-1.7-4.3-1.7c-2.3,0-4.1,0.7-5.4,2.1c-1.3,1.4-1.9,3.3-1.9,5.9v4.6c0,2.5,0.7,4.4,2.1,5.8
			c1.4,1.4,3.3,2,5.9,2c1.3,0,2.6-0.2,3.8-0.7s2.4-1.1,3.4-2l6.3,5.6c-1.9,1.7-4,3.1-6.4,4c-2.4,0.9-4.8,1.4-7.2,1.4
			C345.2,103.7,342.2,103.1,339.7,101.8z"/>
		<path d="M374.7,100.9c-1.9-1.9-2.9-4.7-2.9-8.5c0-3.6,1.1-6.3,3.3-8.1c2.2-1.8,5.4-2.7,9.8-2.7h9.1l0.5,7.3h-9.6
			c-1.5,0-2.5,0.3-3.3,0.9c-0.7,0.6-1.1,1.4-1.1,2.6c0,1.2,0.5,2.1,1.4,2.7s2.3,0.9,4.1,0.9c2.6,0,4.5-0.3,5.7-0.9
			c1.3-0.6,1.9-1.5,1.9-2.7l0.7,5.3c-0.1,1.3-0.7,2.4-1.8,3.3c-1.1,0.9-2.4,1.6-4,2.1c-1.6,0.5-3.3,0.7-5.1,0.7
			C379.6,103.7,376.7,102.8,374.7,100.9z M393.7,80c0-1.7-0.6-3-1.7-3.9s-2.7-1.4-4.8-1.4c-1.4,0-2.7,0.2-4,0.7s-2.5,1.1-3.6,1.9
			l-6-5.9c1.5-1.7,3.4-3,5.8-3.9s5-1.4,7.9-1.4c3.2,0,5.9,0.5,8.2,1.6s4,2.6,5.2,4.6c1.2,2,1.8,4.5,1.8,7.3v23.4h-8.8V80z"/>
		<path d="M413.9,52.1h9.6v51.1h-9.6V52.1z M418.4,90l17-23.3h10.2l-25.9,34L418.4,90z M427,84.3l7.9-4.8l12.4,23.6h-11.1L427,84.3z
			"/>
		<path d="M460.5,101.8c-2.5-1.3-4.4-3.1-5.7-5.6c-1.3-2.4-2-5.4-2-8.8v-4.1c0-3.6,0.6-6.7,1.9-9.2c1.3-2.6,3.1-4.5,5.5-5.8
			c2.4-1.3,5.3-2,8.7-2c3.2,0,5.9,0.8,8.2,2.4c2.3,1.6,4,3.9,5.2,6.9c1.2,3,1.8,6.7,1.8,11v2.4h-25v-6.5h16.2l-0.1-0.8
			c-0.3-2.1-0.9-3.7-2-4.9c-1.1-1.1-2.5-1.7-4.3-1.7c-2.3,0-4.1,0.7-5.4,2.1c-1.3,1.4-1.9,3.3-1.9,5.9v4.6c0,2.5,0.7,4.4,2.1,5.8
			c1.4,1.4,3.3,2,5.9,2c1.3,0,2.6-0.2,3.8-0.7s2.4-1.1,3.4-2l6.3,5.6c-1.9,1.7-4,3.1-6.4,4c-2.4,0.9-4.8,1.4-7.2,1.4
			C466,103.7,463,103.1,460.5,101.8z"/>
		<path d="M494.4,66.7h10.3v36.5h-10.3V66.7z M513.2,75.8c-0.7-0.2-1.5-0.4-2.4-0.4c-1.9,0-3.5,0.6-4.5,1.9c-1.1,1.3-1.6,3-1.6,5.2
			L504,73c1-2.2,2.3-3.9,3.9-5.1c1.6-1.2,3.4-1.8,5.3-1.8c1.5,0,2.9,0.2,4.1,0.7s2.3,1.2,3.2,2.1l-5.6,7.8
			C514.5,76.4,513.9,76,513.2,75.8z"/>
		<path d="M549.1,52.1h9.6v51.1h-9.6V52.1z M553.9,93.9h12.3c3.2,0,5.6-0.8,7.3-2.3s2.6-3.7,2.6-6.5v-15c0-2.8-0.9-4.9-2.6-6.5
			s-4.2-2.3-7.3-2.3h-12.3v-9.3H566c4.3,0,7.9,0.7,10.9,2.1s5.3,3.5,6.9,6.3s2.4,6,2.4,9.9v14.5c0,3.7-0.8,6.9-2.3,9.6
			s-3.8,4.9-6.8,6.4s-6.7,2.3-11.1,2.3h-12V93.9z"/>
		<path d="M604.2,101.8c-2.5-1.3-4.4-3.1-5.7-5.6c-1.3-2.4-2-5.4-2-8.8v-4.1c0-3.6,0.6-6.7,1.9-9.2c1.3-2.6,3.1-4.5,5.5-5.8
			c2.4-1.3,5.3-2,8.7-2c3.2,0,5.9,0.8,8.2,2.4c2.3,1.6,4,3.9,5.2,6.9c1.2,3,1.8,6.7,1.8,11v2.4h-25v-6.5h16.2l-0.1-0.8
			c-0.3-2.1-0.9-3.7-2-4.9c-1.1-1.1-2.5-1.7-4.3-1.7c-2.3,0-4.1,0.7-5.4,2.1c-1.3,1.4-1.9,3.3-1.9,5.9v4.6c0,2.5,0.7,4.4,2.1,5.8
			c1.4,1.4,3.3,2,5.9,2c1.3,0,2.6-0.2,3.8-0.7s2.4-1.1,3.4-2l6.3,5.6c-1.9,1.7-4,3.1-6.4,4c-2.4,0.9-4.8,1.4-7.2,1.4
			C609.7,103.7,606.7,103.1,604.2,101.8z"/>
		<path d="M644.6,101.7c-2.5-1.3-4.4-3.3-5.6-5.8s-1.9-5.6-1.9-9.1v-3.9c0-3.5,0.6-6.6,1.9-9.1s3.2-4.4,5.6-5.7s5.4-2,8.9-2
			c2,0,3.9,0.2,5.6,0.7s3.4,1.1,4.8,2s2.6,1.9,3.5,3.2l-6.2,6c-0.9-0.8-1.9-1.5-3.1-1.9s-2.4-0.7-3.8-0.7c-2.4,0-4.3,0.7-5.7,2
			s-2,3.1-2,5.5v3.9c0,2.4,0.7,4.3,2,5.6s3.2,2,5.7,2c1.3,0,2.6-0.2,3.8-0.7s2.2-1.2,3.1-2.1l6.2,6.4c-1,1.2-2.1,2.3-3.6,3.1
			s-3,1.5-4.7,2s-3.6,0.7-5.6,0.7C650.1,103.7,647.1,103,644.6,101.7z"/>
		<path d="M675.9,52.1h9.6v51.1h-9.6V52.1z M680.4,90l17-23.3h10.2l-25.9,34L680.4,90z M689.1,84.3l7.9-4.8l12.4,23.6h-11.1
			L689.1,84.3z"/>
	</g>
</g>
<g>
	<path class="st8" d="M139.7,89.6h-27.4c-13.3,0-24-10.8-24-24s10.8-24,24-24h31.9c5.3,0,9.6,4.3,9.6,9.6s-4.3,9.6-9.6,9.6h-32.4
		c-2.7,0-4.8,2.2-4.8,4.8s2.2,4.8,4.8,4.8h27.4c13.3,0,24,10.8,24,24s-10.8,24-24,24H97.9c-5.3,0-9.6-4.3-9.6-9.6s4.3-9.6,9.6-9.6
		h41.8c2.7,0,4.8-2.2,4.8-4.8S142.3,89.6,139.7,89.6z M159.9,118.4c6.4-4.3,11-11.2,12.3-19.2h15.5c2.6,0,4.7-2.2,4.7-4.8V65.6
		c0-2.7-2.1-4.8-4.7-4.8h-28.2c2.2-2.6,3.6-5.9,3.6-9.6s-1.4-7.1-3.6-9.6h32.9c10.4,0,18.9,8.6,18.9,19.2v38.4
		c0,10.6-8.5,19.2-18.9,19.2H159.9z"/>
</g>
</svg>
