<?xml version="1.0" encoding="utf-8"?>
<!-- Generator: Adobe Illustrator 27.0.1, SVG Export Plug-In . SVG Version: 6.00 Build 0)  -->
<svg version="1.1" id="レイヤー_1" xmlns="http://www.w3.org/2000/svg" xmlns:xlink="http://www.w3.org/1999/xlink" x="0px"
	 y="0px" viewBox="0 0 640 128" style="enable-background:new 0 0 640 128;" xml:space="preserve">
<style type="text/css">
	.st0{fill:#D4F0FF;}
	.st1{fill:#3497DA;}
	.st2{fill:#010101;}
	.st3{fill:#184A60;}
	.st4{fill:#003A53;}
	.st5{fill:#00435B;}
	.st6{fill:#030303;}
	.st7{fill:#2893D9;}
	.st8{fill:#070707;}
	.st9{fill:#F8FBFD;}
</style>
<rect y="-16" class="st0" width="640" height="160"/>
<path class="st1" d="M141.2,23.6c8.5,2.9,17.3,4.7,25.9,7c1.8,0.5,3.7,0.5,5.1,1.8c0.2,20.9,0.2,41.8,0,62.6
	c-8.8,3.4-18.1,5.3-27,8.2c-1.4,0.4-2.9,0.4-4,1.4c-0.2,0-0.6,0-0.8,0c-1.4-1.5-1.3-3.4-1.3-5.3c0-23.5,0-47,0-70.6
	c0-1.8-0.1-3.8,1.3-5.3C140.6,23.6,141,23.6,141.2,23.6z"/>
<path class="st2" d="M516.7,80.9c-1.2,1.7-2.9,2.3-4.8,1.6c-1.8-0.7-1.7-2.6-1.7-4.1c0-6.6,0-13.3,0-19.8c-0.1-5.1-1.8-7.3-5.4-7.3
	c-4.6,0.1-9.8,4.2-9.8,8c-0.1,5.7,0,11.4,0,17.1c0,1.2,0,2.4-0.2,3.5c-0.3,2-1.5,3-3.7,2.8c-2.1-0.2-2.7-1.5-2.7-3.3
	c-0.1-6.2,0-12.5-0.1-18.6c-0.1-3.4,0.7-7.4-3.2-9c-4.1-1.7-7.3,1.1-10.3,3.6c-1.5,1.3-1.7,2.9-1.7,4.6c0.1,5.3,0,10.6,0,15.9
	c0,1.3-0.1,2.6-0.2,3.9c-0.2,2.1-1.3,3-3.4,2.9c-2.1-0.1-2.8-1.4-2.8-3.1c-0.1-10.1-0.1-20.2,0-30.2c0-1.8,1-3.1,2.8-3.3
	c3.1-0.3,3.3,2.4,4,4.7c3.6-2.3,6.8-4.8,11.1-5c4.5-0.2,7.8,1.2,9.6,5.8c3.9-3.2,7.8-5.8,12.9-5.8c5.3,0.1,7,1.4,9.6,8.2
	C516.7,62.8,516.7,71.8,516.7,80.9z"/>
<path class="st3" d="M133.8,33.1c0.1,20.2,0.1,40.3,0.2,60.5c0,0.6,0.2,1.4-0.8,1.5c-3.1-1-6.5,0.3-9.6-0.7c0-20.4,0-40.8,0-61.2
	C127,32.6,130.5,32.6,133.8,33.1z"/>
<path class="st4" d="M133.8,33.1c-3.4,0-6.8,0-10.2,0c0-0.2,0-0.6,0-0.8C127,32.6,130.6,31.3,133.8,33.1z"/>
<path class="st5" d="M123.6,94.4c3.2,0.4,6.5-0.8,9.6,0.7c-3.2,0-6.4,0-9.6,0.1C123.6,94.9,123.6,94.6,123.6,94.4z"/>
<path class="st2" d="M337.6,74.2c2.2-7.6,4.3-14.4,6.3-21.2c0.4-1.4,0.8-2.8,1.3-4.2c0.7-1.9,2-3.3,4.2-2.6c2.3,0.6,2.5,2.6,1.8,4.5
	c-1.3,4-2.6,8.1-3.8,12.1c-2.6,8.2-5.1,16.4-8.1,24.4c-3.1,8.6-9.9,12.1-17.8,9.7c-0.7-0.2-1.5-0.5-2.2-1c-1-0.7-1.8-1.7-1.2-3
	c0.6-1.4,1.6-1.4,3-1.2c8.1,1.5,11.8-1.3,13.1-9.5c0.2-1.4-0.4-2.3-0.9-3.4c-3.8-8.7-7.5-17.4-11.2-26.2c-0.5-1.2-1-2.5-1-3.8
	c-0.1-1.5,1-2.5,2.4-2.7c2.5-0.5,3.8,1,4.5,3c2.5,6.4,4.9,12.8,7.3,19.2C336,69.9,336.6,71.5,337.6,74.2z"/>
<path d="M424.8,67.7c-0.1-17.8,10.7-25.8,24.4-20.9c4,1.4,6.8,4.1,8.3,7.9c1.8,4.6,2.3,9.5,1.4,14.4c-2.3,11.8-13.4,17.5-24.5,12.9
	C426.5,78.8,424.9,72.1,424.8,67.7z"/>
<path d="M384.8,65.5c-0.3-19.2,13.8-21.8,24.2-18.7c4,1.2,7,3.9,8.5,7.8c2.3,6,2.6,12.2,0.6,18.2c-2.6,7.7-9.1,11.2-18.8,10.4
	c-7.6-0.6-12.8-5.6-14.1-13.8C384.8,67.8,384.8,66.1,384.8,65.5z"/>
<path class="st2" d="M218.6,77.4c-4.3,3.6-8.7,6.1-14.2,5.8c-6.2-0.2-9.4-3-9.7-9.2c-0.3-8.1-0.2-16.2-0.2-24.2c0-2,0.8-3.8,3.1-3.8
	c2.3,0,3.2,1.7,3.2,3.8c0.1,6.5,0.1,13,0.2,19.4c0.1,6.2,1.8,8.5,6.4,8.6c6.2,0.1,11.6-4.2,11.7-9.3c0-5.9,0-11.9,0-17.8
	c0-2.3,0.5-4.6,3.2-4.6c2.8,0,3.1,2.2,3.1,4.6c-0.1,8.9,0,17.8-0.1,26.6c0,2.1,1,4.8-2.5,5.4C218.9,83.2,219,80.2,218.6,77.4z"/>
<path d="M242.8,51.4c4.1-3,8.2-5.6,13.4-5.7c6.6,0,10.3,3.3,10.5,9.8c0.2,7.8,0.1,15.6,0.1,23.4c0,2.3-0.7,3.9-3.4,3.8
	c-2.5-0.1-3-1.6-3-3.8c0-6.7,0.1-13.5-0.1-20.2c-0.2-6.6-3.8-9-10-6.9c-5.8,2.1-7.6,4.6-7.6,10.8c0,5.3,0,10.6,0,15.9
	c0,2.3-0.4,4.2-3.4,4.2c-3,0-3-2.2-3-4.2c-0.1-9-0.1-18,0-27c0-2.3-0.3-5.3,3-5.5C242.3,45.8,242.4,48.8,242.8,51.4z"/>
<path class="st2" d="M296.2,62.7c0-2.1,0-4.2,0-6.3c0-2.8,0.9-6.1-4-5.3c-1.3,0.2-2.2-1-2.2-2.3c0.1-1.3,1-2.3,2.4-2.1
	c3.8,0.7,3.9-1.5,3.8-4.3c-0.1-2.2,0.2-4.5,3.2-4.5c3.3,0,3.6,2.3,3.3,4.7c-0.4,3.3,0.6,4.6,4.1,4.2c1.7-0.2,3.4,0,5.2-0.1
	c1.6-0.1,3.1,0.2,3.2,2.1c0.1,2-1.5,2.6-3.3,2.6c-2.2,0-4.6,0-6.8,0c-1.3,0-2.4,0-2.3,1.8c0.2,6.6-0.6,13.2,0.5,19.8
	c0.9,5,3.4,6.5,8.2,5.3c1.8-0.5,3.9-1.5,4.6,1c0.6,2.4-1.6,3-3.4,3.5c-9.5,2.9-15.8-1.4-16.4-11.1C296.1,68.6,296.2,65.6,296.2,62.7
	C296.2,62.7,296.2,62.7,296.2,62.7z"/>
<path class="st2" d="M366,50.6c3.6-3.6,7.2-5.5,11.8-4.8c1.9,0.3,3.9,1,3.7,3.3c-0.2,2.6-2.2,2.4-4.2,2.2
	c-6.8-0.7-11.5,3.4-11.5,10.1c0,5.7,0,11.4,0,17c0,2.3-0.3,4.2-3.3,4.2c-2.8,0-3.1-2-3.1-4.1c-0.1-9.4,0-18.7,0-28.1
	c0-2.1,0.3-4.2,2.9-4.4C365,45.8,365.7,47.8,366,50.6z"/>
<path class="st6" d="M277.6,64.2c0-4.7,0-9.5,0-14.2c0-2.1,0.6-3.8,3-3.9c2.3-0.1,3.4,1.6,3.4,3.6c0.1,9.9,0.1,19.8,0,29.8
	c0,2.1-1,3.4-3.5,3.4c-2.4-0.1-2.8-1.6-2.8-3.4C277.5,74.2,277.6,69.2,277.6,64.2z"/>
<path class="st7" d="M172.2,95.1c-1-1-0.6-2.2-0.6-3.4c0-18.6,0-37.3,0-55.9c0-1.1-0.3-2.4,0.6-3.4c1,0.8,0.6,2,0.6,3
	c0,18.9,0,37.8,0,56.7C172.9,93.1,173.2,94.2,172.2,95.1z"/>
<path class="st8" d="M284.7,38c-0.3,2.2-1.8,3.5-4.2,3.4c-2.5-0.1-4-1.7-3.8-4.1c0.1-2.4,1.8-3.9,4.2-3.8
	C283.2,33.8,284.6,35.3,284.7,38z"/>
<path class="st9" d="M149,64.2c-0.9,1-1.5,3-2.6,2.6c-1.2-0.5-2-2.2-2-3.9c0-1.2-0.1-2.3,0-3.5c0.1-1.5,0.5-3,2-3.5
	c1.7-0.5,1.9,1.4,2.7,2.3C149.8,60.1,150,62.1,149,64.2z"/>
<path class="st7" d="M149,64.2c0-2,0.1-4.1,0.1-6.1C150.7,60.1,150.5,62.1,149,64.2z"/>
<path class="st0" d="M431.4,64.4c0-3.4,0.5-6.6,2.3-9.5c3.9-6.4,13.2-6.4,16.6,0.2c3.2,6.1,3.2,12.5,0,18.6c-1.8,3.4-5,4.9-9,4.7
	c-3.9-0.2-6.6-2-8.2-5.3C431.8,70.5,431.4,67.5,431.4,64.4z"/>
<path class="st0" d="M391.4,64.2c0-2.2,0.3-4.5,1-6.6c1.6-4.7,5.2-7.4,9.7-7.4c4.3,0.1,7.9,2.7,9.4,7.4c1.4,4.6,1.5,9.4,0,14
	c-1.5,4.6-4.9,7-9.4,7c-4.8,0-7.8-2.2-9.5-6.9C391.7,69.2,391.4,66.7,391.4,64.2z"/>
</svg>
