<?xml version="1.0" encoding="utf-8"?>
<!-- Generator: Adobe Illustrator 26.5.0, SVG Export Plug-In . SVG Version: 6.00 Build 0)  -->
<svg version="1.1" id="レイヤー_1" xmlns="http://www.w3.org/2000/svg" xmlns:xlink="http://www.w3.org/1999/xlink" x="0px"
	 y="0px" viewBox="0 0 800 160" style="enable-background:new 0 0 800 160;" xml:space="preserve">
<style type="text/css">
	.st0{fill:#D4F0FF;}
	.st1{fill:#3497DA;}
	.st2{fill:#010101;}
	.st3{fill:#184A60;}
	.st4{fill:#003A53;}
	.st5{fill:#00435B;}
	.st6{fill:#030303;}
	.st7{fill:#2893D9;}
	.st8{fill:#070707;}
	.st9{fill:#F8FBFD;}
</style>
<rect y="-20" class="st0" width="800" height="200"/>
<path class="st1" d="M176.5,29.5c10.6,3.6,21.6,5.9,32.4,8.8c2.2,0.6,4.6,0.6,6.4,2.2c0.2,26.1,0.3,52.2,0,78.3
	c-11,4.3-22.6,6.6-33.8,10.2c-1.7,0.5-3.6,0.5-5,1.8c-0.3,0-0.7,0-1,0c-1.7-1.9-1.6-4.3-1.6-6.6c0-29.4,0-58.8,0-88.2
	c0-2.3-0.1-4.7,1.6-6.6C175.8,29.5,176.2,29.5,176.5,29.5z"/>
<path class="st2" d="M645.9,101.1c-1.5,2.1-3.6,2.9-6,2c-2.3-0.9-2.1-3.2-2.1-5.1c0-8.3,0-16.6,0-24.8c-0.1-6.4-2.2-9.1-6.7-9.1
	c-5.8,0.1-12.2,5.3-12.2,10c-0.1,7.1,0,14.2,0,21.4c0,1.5,0,3-0.3,4.4c-0.4,2.5-1.9,3.7-4.6,3.5c-2.6-0.2-3.4-1.9-3.4-4.1
	c-0.1-7.8,0-15.6-0.1-23.3c-0.1-4.2,0.9-9.3-4-11.3c-5.1-2.1-9.1,1.4-12.9,4.5c-1.9,1.6-2.1,3.6-2.1,5.8c0.1,6.6,0,13.2,0,19.9
	c0,1.6-0.1,3.3-0.3,4.9c-0.2,2.6-1.6,3.8-4.3,3.6c-2.6-0.1-3.5-1.8-3.5-3.9c-0.1-12.6-0.1-25.2,0-37.7c0-2.2,1.2-3.9,3.5-4.1
	c3.9-0.4,4.1,3,5,5.9c4.5-2.9,8.5-6,13.9-6.3c5.6-0.3,9.7,1.5,12,7.2c4.9-4,9.7-7.3,16.1-7.2c6.6,0.1,8.7,1.7,12,10.2
	C645.9,78.5,645.9,89.8,645.9,101.1z"/>
<path class="st3" d="M167.3,41.4c0.1,25.2,0.1,50.4,0.2,75.6c0,0.8,0.2,1.7-1,1.9c-3.9-1.3-8.1,0.4-12-0.9c0-25.5,0-51,0-76.5
	C158.8,40.7,163.1,40.7,167.3,41.4z"/>
<path class="st4" d="M167.3,41.4c-4.3,0-8.5,0-12.8,0c0-0.3,0-0.7,0-1C158.8,40.8,163.2,39.1,167.3,41.4z"/>
<path class="st5" d="M154.5,118c4,0.5,8.1-1,12,0.9c-4,0-8,0-12,0.1C154.5,118.6,154.5,118.3,154.5,118z"/>
<path class="st2" d="M422,92.7c2.8-9.5,5.4-18,7.9-26.5c0.5-1.7,1-3.5,1.6-5.2c0.9-2.4,2.5-4.1,5.3-3.3c2.9,0.8,3.1,3.2,2.3,5.6
	c-1.6,5-3.2,10.1-4.8,15.1c-3.3,10.2-6.4,20.5-10.1,30.5c-3.9,10.8-12.4,15.1-22.2,12.1c-0.9-0.3-1.9-0.6-2.7-1.2
	c-1.3-0.9-2.2-2.1-1.5-3.8s2-1.8,3.7-1.5c10.1,1.9,14.8-1.6,16.4-11.9c0.3-1.7-0.5-2.9-1.1-4.2c-4.7-10.9-9.4-21.8-14-32.7
	c-0.6-1.5-1.2-3.1-1.3-4.7c-0.1-1.9,1.2-3.1,3-3.4c3.1-0.6,4.7,1.3,5.6,3.8c3.1,8,6.1,16,9.1,24C420,87.4,420.8,89.4,422,92.7z"/>
<path d="M531,84.6c-0.1-22.3,13.4-32.2,30.5-26.1c5,1.8,8.5,5.1,10.4,9.9c2.3,5.8,2.9,11.9,1.7,18c-2.9,14.7-16.7,21.9-30.6,16.1
	C533.1,98.5,531.1,90.1,531,84.6z"/>
<path d="M481,81.9c-0.4-24,17.2-27.3,30.2-23.4c5,1.5,8.7,4.9,10.6,9.8c2.9,7.5,3.2,15.2,0.7,22.8c-3.2,9.6-11.4,14-23.5,13
	c-9.5-0.8-16-7-17.6-17.2C481,84.7,481,82.6,481,81.9z"/>
<path class="st2" d="M273.2,96.8c-5.4,4.5-10.9,7.6-17.8,7.3c-7.7-0.3-11.8-3.7-12.1-11.5c-0.4-10.1-0.3-20.2-0.3-30.3
	c0-2.5,1-4.7,3.9-4.8c2.9,0,4,2.1,4,4.7c0.1,8.1,0.1,16.2,0.2,24.3c0.1,7.8,2.2,10.6,8,10.7c7.8,0.1,14.5-5.3,14.6-11.6
	c0-7.4,0-14.9,0-22.3c0-2.9,0.6-5.7,4-5.7c3.5,0,3.9,2.7,3.9,5.7c-0.1,11.1,0,22.2-0.1,33.3c0,2.6,1.2,6-3.1,6.7
	C273.6,104,273.8,100.3,273.2,96.8z"/>
<path d="M303.5,64.2c5.1-3.7,10.2-7,16.7-7.1c8.2,0,12.9,4.1,13.1,12.2c0.2,9.8,0.1,19.5,0.1,29.3c0,2.9-0.9,4.9-4.3,4.8
	c-3.1-0.1-3.8-2-3.8-4.7c0-8.4,0.1-16.9-0.1-25.3c-0.2-8.2-4.8-11.3-12.5-8.6c-7.3,2.6-9.5,5.7-9.5,13.5c0,6.6,0,13.2,0,19.9
	c0,2.9-0.5,5.3-4.3,5.3c-3.7,0-3.8-2.7-3.8-5.2c-0.1-11.2-0.1-22.5,0-33.7c0-2.9-0.4-6.6,3.8-6.9C302.9,57.3,303,61,303.5,64.2z"/>
<path class="st2" d="M370.2,78.4c0-2.6,0-5.3,0-7.9c0-3.5,1.1-7.6-5-6.6c-1.6,0.3-2.8-1.3-2.7-2.9c0.1-1.6,1.2-2.9,3-2.6
	c4.8,0.9,4.9-1.9,4.8-5.4c-0.1-2.7,0.2-5.6,4-5.6c4.1,0,4.5,2.9,4.1,5.9c-0.5,4.1,0.8,5.8,5.1,5.2c2.1-0.3,4.3,0,6.5-0.1
	c2-0.1,3.9,0.3,4,2.6c0.1,2.5-1.9,3.2-4.1,3.2c-2.8,0-5.7,0-8.5,0c-1.6,0-3,0-2.9,2.2c0.3,8.2-0.8,16.5,0.6,24.7
	c1.1,6.3,4.2,8.1,10.3,6.6c2.3-0.6,4.9-1.9,5.8,1.3c0.8,3-2,3.7-4.3,4.4c-11.9,3.6-19.8-1.7-20.5-13.9
	C370.1,85.7,370.3,82,370.2,78.4C370.3,78.4,370.2,78.4,370.2,78.4z"/>
<path class="st2" d="M457.5,63.3c4.5-4.5,9-6.9,14.8-6c2.4,0.4,4.9,1.2,4.6,4.1c-0.3,3.2-2.8,3-5.3,2.7c-8.5-0.9-14.4,4.3-14.4,12.6
	c0,7.1,0,14.2,0,21.3c0,2.9-0.4,5.3-4.1,5.3c-3.5,0-3.9-2.5-3.9-5.1c-0.1-11.7,0-23.4,0-35.1c0-2.6,0.4-5.2,3.6-5.5
	C456.2,57.2,457.1,59.8,457.5,63.3z"/>
<path class="st6" d="M347,80.2c0-5.9,0-11.9,0-17.8c0-2.6,0.8-4.7,3.7-4.9c2.9-0.1,4.2,2,4.2,4.5c0.1,12.4,0.1,24.8,0,37.2
	c0,2.6-1.3,4.3-4.4,4.2c-3-0.1-3.5-2-3.5-4.3C346.9,92.7,347,86.5,347,80.2z"/>
<path class="st7" d="M215.3,118.9c-1.2-1.2-0.8-2.8-0.8-4.2c0-23.3,0-46.6,0-69.9c0-1.4-0.4-3,0.8-4.2c1.2,1,0.7,2.5,0.8,3.7
	c0,23.6,0,47.3,0,70.9C216.1,116.4,216.5,117.8,215.3,118.9z"/>
<path class="st8" d="M355.9,47.5c-0.4,2.8-2.3,4.4-5.3,4.3c-3.1-0.1-5-2.1-4.8-5.1c0.1-3,2.2-4.9,5.2-4.7
	C354,42.2,355.7,44.1,355.9,47.5z"/>
<path class="st9" d="M186.2,80.2c-1.1,1.2-1.9,3.7-3.3,3.2c-1.5-0.6-2.5-2.8-2.5-4.9c0-1.5-0.1-2.9,0-4.4c0.1-1.9,0.6-3.8,2.5-4.4
	c2.1-0.6,2.4,1.8,3.4,2.9C187.3,75.1,187.5,77.6,186.2,80.2z"/>
<path class="st7" d="M186.2,80.2c0-2.5,0.1-5.1,0.1-7.6C188.4,75.1,188.1,77.6,186.2,80.2z"/>
<path class="st0" d="M539.2,80.5c0-4.2,0.6-8.2,2.9-11.9c4.9-8,16.5-8,20.8,0.3c4,7.6,4,15.6,0,23.3c-2.2,4.3-6.2,6.1-11.2,5.9
	c-4.9-0.2-8.2-2.5-10.3-6.6C539.7,88.1,539.2,84.4,539.2,80.5z"/>
<path class="st0" d="M489.2,80.2c0-2.8,0.4-5.6,1.3-8.3c2-5.9,6.5-9.3,12.1-9.2c5.4,0.1,9.9,3.4,11.7,9.2c1.8,5.8,1.9,11.7,0,17.5
	c-1.9,5.7-6.1,8.7-11.8,8.7c-6,0-9.8-2.7-11.9-8.6C489.6,86.5,489.3,83.4,489.2,80.2z"/>
</svg>
