<?xml version="1.0" encoding="utf-8"?>
<!-- Generator: Adobe Illustrator 27.0.1, SVG Export Plug-In . SVG Version: 6.00 Build 0)  -->
<svg version="1.1" id="_x33_" xmlns="http://www.w3.org/2000/svg" xmlns:xlink="http://www.w3.org/1999/xlink" x="0px" y="0px"
	 width="640px" height="100px" viewBox="0 0 640 100" style="enable-background:new 0 0 640 100;" xml:space="preserve">
<style type="text/css">
	.st0{fill:#3497DA;}
	.st1{fill:#184A60;}
	.st2{fill:#003A53;}
	.st3{fill:#00435B;}
	.st4{fill:#2893D9;}
	.st5{fill:#F8FBFD;}
	.st6{fill:#2A2A2A;}
</style>
<g id="Logo_00000144339999747523950040000001579996818092307893_">
	<path class="st0" d="M42.2,5.2c9.4,3.2,19.2,5.2,28.7,7.8c2,0.6,4.1,0.6,5.7,2c0.2,23.2,0.2,46.3,0,69.4
		c-9.8,3.8-20.1,5.9-29.9,9.1c-1.6,0.4-3.2,0.4-4.4,1.6c-0.2,0-0.7,0-0.9,0c-1.6-1.7-1.4-3.8-1.4-5.9c0-26,0-52.1,0-78.3
		c0-2-0.1-4.2,1.4-5.9C41.5,5.2,42,5.2,42.2,5.2z"/>
	<path class="st1" d="M34,15.8c0.1,22.4,0.1,44.7,0.2,67.1c0,0.7,0.2,1.6-0.9,1.7c-3.4-1.1-7.2,0.3-10.6-0.8c0-22.6,0-45.2,0-67.8
		C26.4,15.2,30.3,15.2,34,15.8z"/>
	<path class="st2" d="M34,15.8c-3.8,0-7.5,0-11.3,0c0-0.2,0-0.7,0-0.9C26.4,15.2,30.4,13.8,34,15.8z"/>
	<path class="st3" d="M22.7,83.7c3.5,0.4,7.2-0.9,10.6,0.8c-3.5,0-7.1,0-10.6,0.1C22.7,84.2,22.7,83.9,22.7,83.7z"/>
	<path class="st4" d="M76.5,84.5c-1.1-1.1-0.7-2.4-0.7-3.8c0-20.6,0-41.3,0-62c0-1.2-0.3-2.7,0.7-3.8c1.1,0.9,0.7,2.2,0.7,3.3
		c0,20.9,0,41.9,0,62.8C77.3,82.3,77.6,83.5,76.5,84.5z"/>
	<path class="st5" d="M50.8,50.2c-1,1.1-1.7,3.3-2.9,2.9c-1.3-0.6-2.2-2.4-2.2-4.3c0-1.3-0.1-2.5,0-3.9c0.1-1.7,0.6-3.3,2.2-3.9
		c1.9-0.6,2.1,1.6,3,2.5C51.7,45.7,51.9,47.9,50.8,50.2z"/>
	<path class="st4" d="M50.8,50.2c0-2.2,0.1-4.5,0.1-6.8C52.7,45.7,52.5,47.9,50.8,50.2z"/>
</g>
<g>
	<path class="st6" d="M180.8,75.2V68c-3.7,5.4-8.1,8.1-13.4,8.1c-3.3,0-6-1-7.9-3.1c-2-2.1-3-4.9-3-8.5V37h6.9v25.2
		c0,2.9,0.4,4.9,1.2,6.1c0.8,1.2,2.2,1.8,4.2,1.8c4.2,0,8.2-2.8,12-8.3V37h6.9v38.2H180.8z"/>
	<path class="st6" d="M201.6,75.2V37h6.9v7.2c3.7-5.3,8.1-8,13.4-8c3.3,0,6,1,7.9,3.1c2,2.1,2.9,4.9,2.9,8.5v27.4h-6.9V50
		c0-2.8-0.4-4.9-1.2-6.1c-0.8-1.2-2.2-1.8-4.1-1.8c-4.2,0-8.2,2.8-12,8.3v24.7H201.6z"/>
	<path class="st6" d="M246.3,30.1v-6.9h6.9v6.9H246.3z M246.3,75.2V37h6.9v38.2H246.3z"/>
	<path class="st6" d="M284.1,75.2c-2.1,0.6-4,0.9-5.6,0.9c-3.5,0-6.3-1-8.2-3c-2-2-3-4.8-3-8.4V42.2h-4.8V37h4.8v-6.9l6.9-0.7V37h10
		v5.2h-10v21.2c0,5,2.2,7.5,6.5,7.5c0.9,0,2-0.2,3.3-0.5V75.2z"/>
	<path class="st6" d="M296.2,89.1l6.2-13.9L287.7,37h7.5l10.9,28.7L317.8,37h6.6l-20.8,52.1H296.2z"/>
	<path class="st6" d="M331.7,75.2V37h6.9v7.2c2.7-5.3,6.7-8,12-8c0.7,0,1.4,0.1,2.2,0.2v6.5c-1.2-0.4-2.2-0.6-3.2-0.6
		c-4.4,0-8.1,2.6-11,7.8v25.1H331.7z"/>
	<path class="st6" d="M376.3,76.1c-5.6,0-10-1.8-13.3-5.4s-4.9-8.4-4.9-14.6c0-6.1,1.6-11,4.9-14.6c3.3-3.6,7.7-5.4,13.3-5.4
		s10,1.8,13.3,5.4c3.3,3.6,4.9,8.4,4.9,14.6c0,6.1-1.6,11-4.9,14.6S381.9,76.1,376.3,76.1z M376.3,70.9c3.4,0,6.1-1.3,8-3.9
		c1.9-2.6,2.8-6.2,2.8-10.9c0-4.7-0.9-8.3-2.8-10.9c-1.9-2.6-4.6-3.8-8-3.8s-6.1,1.3-8,3.8c-1.9,2.6-2.8,6.2-2.8,10.9
		c0,4.7,0.9,8.3,2.8,10.9C370.2,69.6,372.8,70.9,376.3,70.9z"/>
	<path class="st6" d="M420.5,76.1c-5.6,0-10-1.8-13.3-5.4s-4.9-8.4-4.9-14.6c0-6.1,1.6-11,4.9-14.6c3.3-3.6,7.7-5.4,13.3-5.4
		s10,1.8,13.3,5.4c3.3,3.6,4.9,8.4,4.9,14.6c0,6.1-1.6,11-4.9,14.6S426.1,76.1,420.5,76.1z M420.5,70.9c3.4,0,6.1-1.3,8-3.9
		c1.9-2.6,2.8-6.2,2.8-10.9c0-4.7-0.9-8.3-2.8-10.9c-1.9-2.6-4.6-3.8-8-3.8s-6.1,1.3-8,3.8c-1.9,2.6-2.8,6.2-2.8,10.9
		c0,4.7,0.9,8.3,2.8,10.9C414.4,69.6,417.1,70.9,420.5,70.9z"/>
	<path class="st6" d="M449.6,75.2V37h6.9v7.2c3.4-5.3,7.7-8,13-8c5.1,0,8.6,2.7,10.4,8c3.3-5.3,7.5-8,12.8-8c3.4,0,6,1,7.8,3
		c1.9,2,2.8,4.7,2.8,8.3v27.7h-6.9V48.5c0-4.4-1.7-6.5-5.2-6.5c-3.6,0-7.4,2.5-11.3,7.6v25.6H473V48.5c0-4.4-1.8-6.6-5.3-6.6
		c-3.5,0-7.2,2.6-11.2,7.7v25.6H449.6z"/>
</g>
</svg>
