<?xml version="1.0" encoding="utf-8"?>
<!-- Generator: Adobe Illustrator 27.0.1, SVG Export Plug-In . SVG Version: 6.00 Build 0)  -->
<svg version="1.1" id="_x30_" xmlns="http://www.w3.org/2000/svg" xmlns:xlink="http://www.w3.org/1999/xlink" x="0px" y="0px"
	 width="320px" height="44px" viewBox="0 0 320 44" style="enable-background:new 0 0 320 44;" xml:space="preserve">
<style type="text/css">
	.st0{fill:#2E92FE;}
	.st1{fill:#2A68C4;}
	.st2{fill:#FCFDFE;}
	.st3{fill:none;stroke:#FFFFFF;stroke-width:4;}
	.st4{fill:#303C4E;}
</style>
<g id="Logo_00000108282379097397027740000016794072665975669419_">
	<path class="st0" d="M22.8,22.1c0-5.2,0-10.6,0-15.8c0-3,1.1-3.9,3.9-2.8c3,1.1,6,2.4,9.1,3.5c1.3,0.4,1.9,1.3,1.9,2.8
		c0,8.2,0,16.4,0,24.6c0,1.5-0.6,2.2-1.9,2.8c-3.2,1.3-6.5,2.6-9.7,3.7c-2.2,0.9-3.5-0.2-3.5-2.4C22.8,33.1,22.8,27.7,22.8,22.1z"/>
	<path class="st1" d="M19.3,22.1c0,4.1,0,8.2,0,12.3c0,2.2-0.6,2.8-2.8,2.8c-0.9,0-1.9,0-2.8,0c-1.7,0-2.6-0.9-2.6-2.6
		c0-3.2,0-6.5,0-9.5c0-5.2,0-10.4,0-15.5c0-2.2,0.9-2.8,2.8-3c0.9,0,1.7,0,2.4,0c2.2,0,3,0.6,3,3C19.3,13.9,19.3,18,19.3,22.1z"/>
	<path class="st2" d="M28.4,19.9c1.1,0,2.2,1.1,1.9,2.2c0,1.1-1.1,2.2-2.2,2.2S26,23.1,26,22.1C26.2,21,27.3,19.9,28.4,19.9z"/>
</g>
<g>
	<g>
		<path class="st3" d="M88.8,34.5v-3.5c-1.8,2.6-4,4-6.6,4c-1.6,0-2.9-0.5-3.9-1.5c-1-1-1.4-2.4-1.4-4.2V15.7h3.4v12.4
			c0,1.4,0.2,2.4,0.6,3c0.4,0.6,1.1,0.9,2,0.9c2.1,0,4-1.4,5.9-4.1V15.7h3.4v18.7H88.8z"/>
		<path class="st3" d="M99,34.5V15.7h3.4v3.5c1.8-2.6,4-3.9,6.6-3.9c1.6,0,2.9,0.5,3.9,1.5c1,1,1.4,2.4,1.4,4.2v13.5h-3.4V22.1
			c0-1.4-0.2-2.4-0.6-3c-0.4-0.6-1.1-0.9-2-0.9c-2.1,0-4,1.4-5.9,4.1v12.1H99z"/>
		<path class="st3" d="M120.9,12.3V8.9h3.4v3.4H120.9z M120.9,34.5V15.7h3.4v18.7H120.9z"/>
		<path class="st3" d="M139.5,34.5c-1,0.3-2,0.4-2.7,0.4c-1.7,0-3.1-0.5-4-1.5c-1-1-1.4-2.4-1.4-4.1v-11h-2.3v-2.6h2.3v-3.4l3.4-0.3
			v3.7h4.9v2.6h-4.9v10.4c0,2.5,1.1,3.7,3.2,3.7c0.4,0,1-0.1,1.6-0.2V34.5z"/>
		<path class="st3" d="M145.4,41.3l3-6.8l-7.2-18.7h3.7l5.4,14.1l5.7-14.1h3.2L149,41.3H145.4z"/>
		<path class="st3" d="M162.8,34.5V15.7h3.4v3.5c1.3-2.6,3.3-3.9,5.9-3.9c0.3,0,0.7,0,1.1,0.1v3.2c-0.6-0.2-1.1-0.3-1.6-0.3
			c-2.2,0-4,1.3-5.4,3.8v12.3H162.8z"/>
		<path class="st3" d="M184.7,34.9c-2.8,0-4.9-0.9-6.5-2.6s-2.4-4.1-2.4-7.2c0-3,0.8-5.4,2.4-7.2s3.8-2.6,6.5-2.6s4.9,0.9,6.5,2.6
			s2.4,4.1,2.4,7.2c0,3-0.8,5.4-2.4,7.2S187.5,34.9,184.7,34.9z M184.7,32.3c1.7,0,3-0.6,3.9-1.9c0.9-1.3,1.4-3,1.4-5.4
			c0-2.3-0.5-4.1-1.4-5.3c-0.9-1.3-2.2-1.9-3.9-1.9c-1.7,0-3,0.6-3.9,1.9c-0.9,1.3-1.4,3-1.4,5.3c0,2.3,0.5,4.1,1.4,5.4
			C181.7,31.7,183,32.3,184.7,32.3z"/>
		<path class="st3" d="M206.4,34.9c-2.8,0-4.9-0.9-6.5-2.6s-2.4-4.1-2.4-7.2c0-3,0.8-5.4,2.4-7.2s3.8-2.6,6.5-2.6s4.9,0.9,6.5,2.6
			s2.4,4.1,2.4,7.2c0,3-0.8,5.4-2.4,7.2S209.2,34.9,206.4,34.9z M206.4,32.3c1.7,0,3-0.6,3.9-1.9c0.9-1.3,1.4-3,1.4-5.4
			c0-2.3-0.5-4.1-1.4-5.3c-0.9-1.3-2.2-1.9-3.9-1.9c-1.7,0-3,0.6-3.9,1.9c-0.9,1.3-1.4,3-1.4,5.3c0,2.3,0.5,4.1,1.4,5.4
			C203.4,31.7,204.7,32.3,206.4,32.3z"/>
		<path class="st3" d="M220.7,34.5V15.7h3.4v3.5c1.7-2.6,3.8-3.9,6.4-3.9c2.5,0,4.2,1.3,5.1,3.9c1.6-2.6,3.7-3.9,6.3-3.9
			c1.6,0,2.9,0.5,3.8,1.5c0.9,1,1.4,2.3,1.4,4.1v13.6h-3.4V21.4c0-2.1-0.8-3.2-2.5-3.2c-1.8,0-3.6,1.2-5.6,3.7v12.6h-3.4V21.4
			c0-2.2-0.9-3.2-2.6-3.2c-1.7,0-3.5,1.3-5.5,3.8v12.6H220.7z"/>
	</g>
	<g>
		<path class="st4" d="M88.8,34.5v-3.5c-1.8,2.6-4,4-6.6,4c-1.6,0-2.9-0.5-3.9-1.5c-1-1-1.4-2.4-1.4-4.2V15.7h3.4v12.4
			c0,1.4,0.2,2.4,0.6,3c0.4,0.6,1.1,0.9,2,0.9c2.1,0,4-1.4,5.9-4.1V15.7h3.4v18.7H88.8z"/>
		<path class="st4" d="M99,34.5V15.7h3.4v3.5c1.8-2.6,4-3.9,6.6-3.9c1.6,0,2.9,0.5,3.9,1.5c1,1,1.4,2.4,1.4,4.2v13.5h-3.4V22.1
			c0-1.4-0.2-2.4-0.6-3c-0.4-0.6-1.1-0.9-2-0.9c-2.1,0-4,1.4-5.9,4.1v12.1H99z"/>
		<path class="st4" d="M120.9,12.3V8.9h3.4v3.4H120.9z M120.9,34.5V15.7h3.4v18.7H120.9z"/>
		<path class="st4" d="M139.5,34.5c-1,0.3-2,0.4-2.7,0.4c-1.7,0-3.1-0.5-4-1.5c-1-1-1.4-2.4-1.4-4.1v-11h-2.3v-2.6h2.3v-3.4l3.4-0.3
			v3.7h4.9v2.6h-4.9v10.4c0,2.5,1.1,3.7,3.2,3.7c0.4,0,1-0.1,1.6-0.2V34.5z"/>
		<path class="st4" d="M145.4,41.3l3-6.8l-7.2-18.7h3.7l5.4,14.1l5.7-14.1h3.2L149,41.3H145.4z"/>
		<path class="st4" d="M162.8,34.5V15.7h3.4v3.5c1.3-2.6,3.3-3.9,5.9-3.9c0.3,0,0.7,0,1.1,0.1v3.2c-0.6-0.2-1.1-0.3-1.6-0.3
			c-2.2,0-4,1.3-5.4,3.8v12.3H162.8z"/>
		<path class="st4" d="M184.7,34.9c-2.8,0-4.9-0.9-6.5-2.6s-2.4-4.1-2.4-7.2c0-3,0.8-5.4,2.4-7.2s3.8-2.6,6.5-2.6s4.9,0.9,6.5,2.6
			s2.4,4.1,2.4,7.2c0,3-0.8,5.4-2.4,7.2S187.5,34.9,184.7,34.9z M184.7,32.3c1.7,0,3-0.6,3.9-1.9c0.9-1.3,1.4-3,1.4-5.4
			c0-2.3-0.5-4.1-1.4-5.3c-0.9-1.3-2.2-1.9-3.9-1.9c-1.7,0-3,0.6-3.9,1.9c-0.9,1.3-1.4,3-1.4,5.3c0,2.3,0.5,4.1,1.4,5.4
			C181.7,31.7,183,32.3,184.7,32.3z"/>
		<path class="st4" d="M206.4,34.9c-2.8,0-4.9-0.9-6.5-2.6s-2.4-4.1-2.4-7.2c0-3,0.8-5.4,2.4-7.2s3.8-2.6,6.5-2.6s4.9,0.9,6.5,2.6
			s2.4,4.1,2.4,7.2c0,3-0.8,5.4-2.4,7.2S209.2,34.9,206.4,34.9z M206.4,32.3c1.7,0,3-0.6,3.9-1.9c0.9-1.3,1.4-3,1.4-5.4
			c0-2.3-0.5-4.1-1.4-5.3c-0.9-1.3-2.2-1.9-3.9-1.9c-1.7,0-3,0.6-3.9,1.9c-0.9,1.3-1.4,3-1.4,5.3c0,2.3,0.5,4.1,1.4,5.4
			C203.4,31.7,204.7,32.3,206.4,32.3z"/>
		<path class="st4" d="M220.7,34.5V15.7h3.4v3.5c1.7-2.6,3.8-3.9,6.4-3.9c2.5,0,4.2,1.3,5.1,3.9c1.6-2.6,3.7-3.9,6.3-3.9
			c1.6,0,2.9,0.5,3.8,1.5c0.9,1,1.4,2.3,1.4,4.1v13.6h-3.4V21.4c0-2.1-0.8-3.2-2.5-3.2c-1.8,0-3.6,1.2-5.6,3.7v12.6h-3.4V21.4
			c0-2.2-0.9-3.2-2.6-3.2c-1.7,0-3.5,1.3-5.5,3.8v12.6H220.7z"/>
	</g>
</g>
</svg>
